<svg width="104" height="104" viewBox="0 0 104 104" fill="none" xmlns="http://www.w3.org/2000/svg">
<g filter="url(#filter0_d_339_3807)">
<g clip-path="url(#clip0_339_3807)">
<rect x="20" y="16" width="64" height="64" rx="12" fill="white"/>
<path d="M59.7576 40.3394H58.7394C58.5939 38.6424 57.9152 37.1394 56.703 36.0727C55.4424 34.9091 53.7939 34.2788 52.0485 34.2788H51.9515C50.2546 34.2788 48.6061 34.9091 47.297 36.0727C46.0849 37.1394 45.4061 38.6909 45.2606 40.3394H44.2424C44.3879 38.3515 45.2121 36.5576 46.6182 35.297C48.0727 33.9879 49.9636 33.2606 51.9515 33.2606H52.0485C54.0364 33.2606 55.9273 33.9879 57.3818 35.297C58.7879 36.5576 59.6121 38.3515 59.7576 40.3394Z" fill="#388FF3"/>
<path d="M54.7152 48.2909H49.2849C48.9939 48.2909 48.7515 48.5333 48.7515 48.8242V51.7818C48.7515 52.0727 48.9939 52.3151 49.2849 52.3151H54.6667C54.9576 52.3151 55.2 52.0727 55.2 51.7818V48.8242C55.2 48.5333 54.9576 48.2909 54.7152 48.2909ZM54.7152 48.2909H49.2849C48.9939 48.2909 48.7515 48.5333 48.7515 48.8242V51.7818C48.7515 52.0727 48.9939 52.3151 49.2849 52.3151H54.6667C54.9576 52.3151 55.2 52.0727 55.2 51.7818V48.8242C55.2 48.5333 54.9576 48.2909 54.7152 48.2909ZM54.7152 48.2909H49.2849C48.9939 48.2909 48.7515 48.5333 48.7515 48.8242V51.7818C48.7515 52.0727 48.9939 52.3151 49.2849 52.3151H54.6667C54.9576 52.3151 55.2 52.0727 55.2 51.7818V48.8242C55.2 48.5333 54.9576 48.2909 54.7152 48.2909ZM54.7152 48.2909H49.2849C48.9939 48.2909 48.7515 48.5333 48.7515 48.8242V51.7818C48.7515 52.0727 48.9939 52.3151 49.2849 52.3151H54.6667C54.9576 52.3151 55.2 52.0727 55.2 51.7818V48.8242C55.2 48.5333 54.9576 48.2909 54.7152 48.2909ZM67.4182 57.406L65.1394 47.7091C64.9455 48.1454 64.703 48.5818 64.4121 48.9697C63.3939 50.2788 61.8424 51.006 60.1939 51.006H57.3333C57.0424 51.006 56.8 50.7636 56.8 50.4727C56.8 50.1818 57.0424 49.9394 57.3333 49.9394H60.1939C61.5515 49.9394 62.7636 49.3575 63.5879 48.2909C64.4121 47.2242 64.703 45.9151 64.4121 44.606L63.9273 42.6182C63.7333 41.8909 63.103 41.3575 62.3273 41.3575H41.6727C40.897 41.3575 40.2667 41.8909 40.0727 42.6182L39.6364 44.606C39.3455 45.9151 39.6364 47.2727 40.4606 48.2909C41.2849 49.3575 42.5455 49.9394 43.8546 49.9394H46.7152C47.0061 49.9394 47.2485 50.1818 47.2485 50.4727C47.2485 50.7636 47.0061 51.006 46.7152 51.006H43.8546C42.2061 51.006 40.6546 50.2788 39.6364 48.9697C39.3455 48.5818 39.103 48.1454 38.9091 47.7091L36.6303 57.406C36.3394 58.7151 36.6303 60.0727 37.4545 61.0909C38.2788 62.1575 39.5394 62.7394 40.8485 62.7394H63.1515C64.5091 62.7394 65.7212 62.1575 66.5455 61.0909C67.4182 60.0242 67.7091 58.7151 67.4182 57.406ZM56.2667 51.7818C56.2667 52.6545 55.5879 53.3333 54.7152 53.3333H49.2849C48.4121 53.3333 47.7333 52.6545 47.7333 51.7818V48.8242C47.7333 47.9515 48.4121 47.2727 49.2849 47.2727H54.6667C55.5394 47.2727 56.2182 47.9515 56.2182 48.8242L56.2667 51.7818ZM54.7152 48.2909H49.2849C48.9939 48.2909 48.7515 48.5333 48.7515 48.8242V51.7818C48.7515 52.0727 48.9939 52.3151 49.2849 52.3151H54.6667C54.9576 52.3151 55.2 52.0727 55.2 51.7818V48.8242C55.2 48.5333 54.9576 48.2909 54.7152 48.2909ZM54.7152 48.2909H49.2849C48.9939 48.2909 48.7515 48.5333 48.7515 48.8242V51.7818C48.7515 52.0727 48.9939 52.3151 49.2849 52.3151H54.6667C54.9576 52.3151 55.2 52.0727 55.2 51.7818V48.8242C55.2 48.5333 54.9576 48.2909 54.7152 48.2909ZM54.7152 48.2909H49.2849C48.9939 48.2909 48.7515 48.5333 48.7515 48.8242V51.7818C48.7515 52.0727 48.9939 52.3151 49.2849 52.3151H54.6667C54.9576 52.3151 55.2 52.0727 55.2 51.7818V48.8242C55.2 48.5333 54.9576 48.2909 54.7152 48.2909Z" fill="#388FF3"/>
</g>
<rect x="20.5" y="16.5" width="63" height="63" rx="11.5" stroke="#EAEDF0"/>
</g>
<defs>
<filter id="filter0_d_339_3807" x="0" y="0" width="104" height="104" filterUnits="userSpaceOnUse" color-interpolation-filters="sRGB">
<feFlood flood-opacity="0" result="BackgroundImageFix"/>
<feColorMatrix in="SourceAlpha" type="matrix" values="0 0 0 0 0 0 0 0 0 0 0 0 0 0 0 0 0 0 127 0" result="hardAlpha"/>
<feOffset dy="4"/>
<feGaussianBlur stdDeviation="10"/>
<feComposite in2="hardAlpha" operator="out"/>
<feColorMatrix type="matrix" values="0 0 0 0 0 0 0 0 0 0 0 0 0 0 0 0 0 0 0.08 0"/>
<feBlend mode="normal" in2="BackgroundImageFix" result="effect1_dropShadow_339_3807"/>
<feBlend mode="normal" in="SourceGraphic" in2="effect1_dropShadow_339_3807" result="shape"/>
</filter>
<clipPath id="clip0_339_3807">
<rect x="20" y="16" width="64" height="64" rx="12" fill="white"/>
</clipPath>
</defs>
</svg>
