<svg width="104" height="104" viewBox="0 0 104 104" fill="none" xmlns="http://www.w3.org/2000/svg">
<g filter="url(#filter0_d_339_694)">
<g clip-path="url(#clip0_339_694)">
<rect x="20" y="16" width="64" height="64" rx="12" fill="white"/>
<path d="M49 49H54.004V45H43.542L45.058 41.606C45.217 41.238 45.578 41 45.978 41H52.148C51.955 39.989 51.952 39.032 52.152 38H45.978C44.376 38 42.933 38.952 42.302 40.424L40.134 45.484C38.871 46.157 38 47.472 38 49V51C38 52.474 38.81 53.75 40 54.444V58C40 59.103 40.897 60 42 60H45C46.103 60 47 59.103 47 58V55H54.004V51H49C48.448 51 48 50.552 48 50C48 49.448 48.448 49 49 49ZM43.5 52.5C42.119 52.5 41 51.381 41 50C41 48.619 42.119 47.5 43.5 47.5C44.881 47.5 46 48.619 46 50C46 51.381 44.881 52.5 43.5 52.5Z" fill="#388FF3"/>
<path d="M65.922 38.4771C65.509 36.1101 63.523 34.4171 62.385 34.0721C62.193 34.0141 62.004 34.1661 62.004 34.3661V39.3831C62.004 39.7621 61.79 40.1081 61.451 40.2771L60.451 40.7771C60.169 40.9181 59.838 40.9181 59.557 40.7771L58.557 40.2771C58.218 40.1081 58.004 39.7611 58.004 39.3831V34.3661C58.004 34.1651 57.814 34.0131 57.621 34.0721C56.482 34.4251 54.497 36.1441 54.087 38.4911C53.735 40.5071 54.491 42.4841 55.684 43.6781C55.88 43.8741 56.003 44.1271 56.003 44.4041V58.0011C56.003 60.2091 57.793 61.9991 60.001 61.9991C62.209 61.9991 63.999 60.2091 63.999 58.0011L64.002 44.4091C64.002 44.1291 64.129 43.8711 64.327 43.6721C65.528 42.4721 66.273 40.4861 65.922 38.4771ZM60.009 59.5001C59.181 59.5001 58.509 58.8281 58.509 58.0001C58.509 57.1721 59.181 56.5001 60.009 56.5001C60.837 56.5001 61.509 57.1721 61.509 58.0001C61.509 58.8281 60.837 59.5001 60.009 59.5001Z" fill="#388FF3"/>
</g>
<rect x="20.5" y="16.5" width="63" height="63" rx="11.5" stroke="#EAEDF0"/>
</g>
<defs>
<filter id="filter0_d_339_694" x="0" y="0" width="104" height="104" filterUnits="userSpaceOnUse" color-interpolation-filters="sRGB">
<feFlood flood-opacity="0" result="BackgroundImageFix"/>
<feColorMatrix in="SourceAlpha" type="matrix" values="0 0 0 0 0 0 0 0 0 0 0 0 0 0 0 0 0 0 127 0" result="hardAlpha"/>
<feOffset dy="4"/>
<feGaussianBlur stdDeviation="10"/>
<feComposite in2="hardAlpha" operator="out"/>
<feColorMatrix type="matrix" values="0 0 0 0 0 0 0 0 0 0 0 0 0 0 0 0 0 0 0.08 0"/>
<feBlend mode="normal" in2="BackgroundImageFix" result="effect1_dropShadow_339_694"/>
<feBlend mode="normal" in="SourceGraphic" in2="effect1_dropShadow_339_694" result="shape"/>
</filter>
<clipPath id="clip0_339_694">
<rect x="20" y="16" width="64" height="64" rx="12" fill="white"/>
</clipPath>
</defs>
</svg>
