<svg width="21" height="21" viewBox="0 0 21 21" fill="none" xmlns="http://www.w3.org/2000/svg">
<path d="M17.7194 16.1425C17.7194 16.1425 16.7539 17.0909 16.5173 17.3689C16.1318 17.7802 15.6777 17.9745 15.0823 17.9745C15.025 17.9745 14.964 17.9745 14.9067 17.9706C13.7733 17.8983 12.7199 17.4565 11.9299 17.0794C9.76985 16.0359 7.87309 14.5543 6.29691 12.6767C4.99551 11.1113 4.12537 9.66405 3.54909 8.11014C3.19416 7.16179 3.06441 6.42292 3.12165 5.72594C3.15982 5.28034 3.33155 4.9109 3.64832 4.59479L4.94971 3.29605C5.13672 3.12085 5.33517 3.02563 5.52981 3.02563C5.77024 3.02563 5.96488 3.17036 6.08701 3.29224C6.09082 3.29605 6.09464 3.29986 6.09846 3.30366C6.33126 3.52076 6.55261 3.74546 6.78541 3.98541C6.90372 4.10728 7.02584 4.22916 7.14797 4.35484L8.18985 5.39459C8.59439 5.79831 8.59439 6.17155 8.18985 6.57527C8.07917 6.68572 7.97231 6.79617 7.86164 6.90281C7.54106 7.23035 7.79289 6.97903 7.46087 7.2761C7.45323 7.28372 7.4456 7.28753 7.44178 7.29514C7.11357 7.62268 7.17463 7.94261 7.24333 8.1597C7.24715 8.17113 7.25096 8.18255 7.25478 8.19398C7.52574 8.84906 7.90739 9.46605 8.48748 10.2011L8.4913 10.2049C9.54463 11.4999 10.6552 12.5091 11.8803 13.2823C12.0367 13.3813 12.197 13.4613 12.3497 13.5375C12.4871 13.606 12.6168 13.6708 12.7275 13.7393C12.7428 13.7469 12.758 13.7584 12.7733 13.766C12.9031 13.8307 13.0252 13.8612 13.1511 13.8612C13.4679 13.8612 13.6664 13.6632 13.7312 13.5984L14.4793 12.8519C14.6091 12.7224 14.8151 12.5662 15.0556 12.5662C15.2922 12.5662 15.4868 12.7148 15.6051 12.8442C15.609 12.8481 15.609 12.8481 15.6128 12.8519L17.7156 14.9504C18.1087 15.3389 17.7194 16.1425 17.7194 16.1425Z" stroke="white" stroke-width="1.5" stroke-linecap="round" stroke-linejoin="round"/>
</svg>
