<svg width="104" height="104" viewBox="0 0 104 104" fill="none" xmlns="http://www.w3.org/2000/svg">
<g filter="url(#filter0_d_339_22)">
<g clip-path="url(#clip0_339_22)">
<rect x="20" y="16" width="64" height="64" rx="12" fill="white"/>
<path fill-rule="evenodd" clip-rule="evenodd" d="M43.9573 60.9333C45.308 57.44 48.7 54.96 52.6667 54.96C56.6333 54.96 60.0253 57.44 61.376 60.9333C61.4947 61.24 61.4547 61.5866 61.268 61.8586C61.0813 62.1306 60.7733 62.2933 60.4427 62.2933H44.8907C44.5613 62.2933 44.252 62.1306 44.0653 61.8586C43.88 61.5866 43.8387 61.24 43.9573 60.9333Z" fill="#388FF3"/>
<path fill-rule="evenodd" clip-rule="evenodd" d="M52.976 56.1773C52.856 56.716 52.3213 57.056 51.7827 56.936C51.244 56.816 50.904 56.2813 51.024 55.7426C51.024 55.7426 51.936 51.6333 51.0227 47.3866C50.436 44.6626 49.092 41.8653 46.1627 40.1573C45.6867 39.8786 45.5253 39.2666 45.8027 38.7893C46.0813 38.3133 46.6933 38.152 47.1707 38.4293C50.6413 40.4546 52.284 43.7373 52.9773 46.9653C53.984 51.6466 52.976 56.1773 52.976 56.1773Z" fill="#388FF3"/>
<path fill-rule="evenodd" clip-rule="evenodd" d="M53.4067 50.824C53.2973 51.3653 52.7693 51.716 52.2293 51.6067C51.688 51.4973 51.3373 50.9707 51.4467 50.4293C51.4467 50.4293 51.8653 48.1 54.8973 45.2333C55.2987 44.8547 55.932 44.872 56.3107 45.2733C56.6907 45.6747 56.672 46.308 56.272 46.6867C53.8253 49 53.4067 50.824 53.4067 50.824Z" fill="#388FF3"/>
<path fill-rule="evenodd" clip-rule="evenodd" d="M55.0467 47.8013C54.9493 47.5399 54.6133 46.5519 54.5867 45.4066C54.552 43.9239 55.0187 42.2253 56.8773 41.2733C60.1987 39.5746 64.2893 40.7693 66.088 42.8413C66.308 43.0946 66.3867 43.4386 66.2973 43.7613C66.2093 44.0839 65.9667 44.3399 65.6493 44.4466C65.6493 44.4466 64.012 45.0426 62.8947 47.2773C62.3427 48.3799 60.9333 49.5639 59.436 49.9733C58.6093 50.1986 57.7653 50.1946 57.0107 49.8906C56.752 49.7866 56.5 49.6466 56.264 49.4666C56.6227 49.0173 57.064 48.5306 57.6053 48.0199C58.0053 47.6413 58.024 47.0079 57.644 46.6066C57.2653 46.2053 56.632 46.1879 56.2307 46.5666C55.78 46.9919 55.388 47.4053 55.0467 47.8013Z" fill="#388FF3"/>
<path fill-rule="evenodd" clip-rule="evenodd" d="M48.3653 45.852C47.8507 46.0826 47.3547 46.1906 46.8853 46.2106C45.444 46.2706 44.1667 45.472 43.1613 44.3493C42.2 43.2746 41.4893 41.9266 41.0933 41.072C40.224 39.2013 37.9227 36.652 37.9227 36.652C37.708 36.4133 37.6213 36.0866 37.6893 35.7733C37.7573 35.46 37.9707 35.1973 38.264 35.068C42.172 33.3533 46.9173 32.9013 50.6253 35.8706C52.3493 37.252 52.5773 39.0093 52.208 40.6306C51.7187 42.78 50.084 44.6453 50.084 44.6453C50.072 44.6586 50.0587 44.672 50.0467 44.6853C49.1053 42.5093 47.5773 40.5 45.1707 39.096C44.6933 38.8186 44.0813 38.98 43.8027 39.456C43.5253 39.9333 43.6867 40.5453 44.1627 40.824C46.3 42.0706 47.5947 43.8973 48.3653 45.852Z" fill="#388FF3"/>
</g>
<rect x="20.5" y="16.5" width="63" height="63" rx="11.5" stroke="#EAEDF0"/>
</g>
<defs>
<filter id="filter0_d_339_22" x="0" y="0" width="104" height="104" filterUnits="userSpaceOnUse" color-interpolation-filters="sRGB">
<feFlood flood-opacity="0" result="BackgroundImageFix"/>
<feColorMatrix in="SourceAlpha" type="matrix" values="0 0 0 0 0 0 0 0 0 0 0 0 0 0 0 0 0 0 127 0" result="hardAlpha"/>
<feOffset dy="4"/>
<feGaussianBlur stdDeviation="10"/>
<feComposite in2="hardAlpha" operator="out"/>
<feColorMatrix type="matrix" values="0 0 0 0 0 0 0 0 0 0 0 0 0 0 0 0 0 0 0.08 0"/>
<feBlend mode="normal" in2="BackgroundImageFix" result="effect1_dropShadow_339_22"/>
<feBlend mode="normal" in="SourceGraphic" in2="effect1_dropShadow_339_22" result="shape"/>
</filter>
<clipPath id="clip0_339_22">
<rect x="20" y="16" width="64" height="64" rx="12" fill="white"/>
</clipPath>
</defs>
</svg>
