<svg width="104" height="104" viewBox="0 0 104 104" fill="none" xmlns="http://www.w3.org/2000/svg">
<g filter="url(#filter0_d_339_1483)">
<g clip-path="url(#clip0_339_1483)">
<rect x="20" y="16" width="64" height="64" rx="12" fill="white"/>
<g clip-path="url(#clip1_339_1483)">
<path d="M67.7498 44.832C67.5239 41.509 66.1223 38.4158 63.7446 36.0381C61.1406 33.4341 57.6785 32 53.9956 32C53.468 32 53.0405 32.4277 53.0405 32.9553V44.832H67.7498Z" fill="#388FF3"/>
<path d="M42.1194 44.832V44.1118C42.1194 41.9736 40.3799 40.2341 38.2417 40.2341H37.2678C36.7402 40.2341 36.3125 40.6619 36.3125 41.1895C36.3125 41.717 36.7402 42.1445 37.2678 42.1445H38.2417C39.3264 42.1445 40.209 43.0271 40.209 44.1118V44.832H42.1194Z" fill="#388FF3"/>
<path d="M62.5813 51.7722C64.1138 51.7722 65.5334 52.2627 66.6929 53.0942C67.5205 51.7703 67.9111 50.2905 67.783 48.8782V46.7424H40.2087V48.9233C40.2087 50.2273 40.5134 51.4612 41.0544 52.5583C42.0249 52.0564 43.1257 51.7722 44.2917 51.7722C47.6145 51.7722 50.4087 54.0769 51.1611 57.1716H55.7119C56.4644 54.0769 59.2585 51.7722 62.5813 51.7722Z" fill="#388FF3"/>
<path d="M44.2917 53.6829C41.4473 53.6829 39.1331 55.9968 39.1331 58.8413C39.1331 61.6858 41.4473 64 44.2917 64C47.1362 64 49.4504 61.6858 49.4504 58.8413C49.4504 55.9968 47.1362 53.6829 44.2917 53.6829ZM44.2917 61.9351C42.5859 61.9351 41.198 60.5474 41.198 58.8413C41.198 57.1355 42.5859 55.7478 44.2917 55.7478C45.9976 55.7478 47.3855 57.1355 47.3855 58.8413C47.3855 60.5474 45.9976 61.9351 44.2917 61.9351Z" fill="#388FF3"/>
<path d="M44.2917 57.6582C43.6392 57.6582 43.1084 58.189 43.1084 58.8413C43.1084 59.4939 43.6392 60.0247 44.2917 60.0247C44.9443 60.0247 45.4751 59.4939 45.4751 58.8413C45.4751 58.189 44.9441 57.6582 44.2917 57.6582Z" fill="#388FF3"/>
<path d="M67.74 58.8413C67.74 55.9968 65.4258 53.6829 62.5813 53.6829C59.7368 53.6829 57.4226 55.9968 57.4226 58.8413C57.4226 61.6858 59.7368 64 62.5813 64C65.4258 64 67.74 61.6858 67.74 58.8413ZM62.5813 61.9351C60.8755 61.9351 59.4875 60.5474 59.4875 58.8413C59.4875 57.1355 60.8755 55.7478 62.5813 55.7478C64.2871 55.7478 65.675 57.1355 65.675 58.8413C65.675 60.5474 64.2871 61.9351 62.5813 61.9351Z" fill="#388FF3"/>
<path d="M62.5813 57.6582C61.9287 57.6582 61.3979 58.189 61.3979 58.8413C61.3979 59.4939 61.9287 60.0247 62.5813 60.0247C63.2339 60.0247 63.7646 59.4939 63.7646 58.8413C63.7646 58.189 63.2339 57.6582 62.5813 57.6582Z" fill="#388FF3"/>
</g>
</g>
<rect x="20.5" y="16.5" width="63" height="63" rx="11.5" stroke="#EAEDF0"/>
</g>
<defs>
<filter id="filter0_d_339_1483" x="0" y="0" width="104" height="104" filterUnits="userSpaceOnUse" color-interpolation-filters="sRGB">
<feFlood flood-opacity="0" result="BackgroundImageFix"/>
<feColorMatrix in="SourceAlpha" type="matrix" values="0 0 0 0 0 0 0 0 0 0 0 0 0 0 0 0 0 0 127 0" result="hardAlpha"/>
<feOffset dy="4"/>
<feGaussianBlur stdDeviation="10"/>
<feComposite in2="hardAlpha" operator="out"/>
<feColorMatrix type="matrix" values="0 0 0 0 0 0 0 0 0 0 0 0 0 0 0 0 0 0 0.08 0"/>
<feBlend mode="normal" in2="BackgroundImageFix" result="effect1_dropShadow_339_1483"/>
<feBlend mode="normal" in="SourceGraphic" in2="effect1_dropShadow_339_1483" result="shape"/>
</filter>
<clipPath id="clip0_339_1483">
<rect x="20" y="16" width="64" height="64" rx="12" fill="white"/>
</clipPath>
<clipPath id="clip1_339_1483">
<rect width="32" height="32" fill="white" transform="translate(36 32)"/>
</clipPath>
</defs>
</svg>
