<svg width="104" height="104" viewBox="0 0 104 104" fill="none" xmlns="http://www.w3.org/2000/svg">
<g filter="url(#filter0_d_339_671)">
<g clip-path="url(#clip0_339_671)">
<rect x="20" y="16" width="64" height="64" rx="12" fill="white"/>
<path d="M53.2035 34.4H49.5021C49.0601 34.4 48.7021 34.7581 48.7021 35.2V36.4067H46.2445C45.8025 36.4067 45.4445 36.7648 45.4445 37.2067C45.4445 37.6487 45.8025 38.0067 46.2445 38.0067H56.4608C56.9027 38.0067 57.2608 37.6487 57.2608 37.2067C57.2608 36.7648 56.9027 36.4067 56.4608 36.4067H54.0032V35.2C54.0035 34.7581 53.6454 34.4 53.2035 34.4ZM52.4035 36.4067H50.3024V36H52.4035V36.4067Z" fill="#388FF3"/>
<path d="M43.5811 39.1254C43.4493 39.4057 43.4909 39.7366 43.6877 39.9756L45.7632 42.4918L46.8093 52.0035C46.8048 52.0102 45.5239 54.6262 45.5219 54.6307C45.4835 54.7126 45.4592 54.807 45.448 54.8947L44.8941 60.7247C44.873 60.9491 44.9472 61.1718 45.0989 61.3385C45.2506 61.5052 45.4656 61.6003 45.6909 61.6003H57.0154C57.2407 61.6003 57.4557 61.5052 57.6074 61.3385C57.7591 61.1718 57.8333 60.9491 57.8122 60.7247L57.2576 54.8943C57.2474 54.8063 57.2208 54.7097 57.1837 54.6303C57.1837 54.6303 55.8992 52.015 55.896 52.0028L56.1776 49.4252L57.5459 48.7507C58.6416 48.2102 59.4224 47.1689 59.6339 45.9651L60.4611 41.2591C60.5744 40.614 60.3981 39.9571 59.977 39.4556C59.5562 38.9542 58.9389 38.6665 58.2842 38.6665H56.4608H44.305C43.9952 38.6665 43.7133 38.8454 43.5811 39.1254ZM57.1783 40.2665H58.2842C58.5315 40.2665 58.6832 40.4031 58.7517 40.4844C58.8199 40.5657 58.9283 40.7385 58.8855 40.9823L58.0583 45.6879C57.9344 46.3913 57.4781 46.9999 56.8381 47.3158L56.3834 47.5401L57.1783 40.2665ZM55.5687 40.2665L55.2147 43.5062C55.0915 43.4406 54.9741 43.3564 54.8349 43.2553C54.4231 42.9558 53.8595 42.5459 52.8343 42.5459C51.8093 42.5459 51.2455 42.9558 50.8339 43.2553C50.4883 43.5065 50.2797 43.6585 49.7747 43.6585C49.2707 43.6585 49.0621 43.5065 48.7165 43.2553C48.4051 43.0287 48.0058 42.7395 47.3859 42.6118L47.3274 42.0796C47.3101 41.9251 47.2483 41.7785 47.1491 41.6582L46.0013 40.2665H55.5687Z" fill="#388FF3"/>
</g>
<rect x="20.5" y="16.5" width="63" height="63" rx="11.5" stroke="#EAEDF0"/>
</g>
<defs>
<filter id="filter0_d_339_671" x="0" y="0" width="104" height="104" filterUnits="userSpaceOnUse" color-interpolation-filters="sRGB">
<feFlood flood-opacity="0" result="BackgroundImageFix"/>
<feColorMatrix in="SourceAlpha" type="matrix" values="0 0 0 0 0 0 0 0 0 0 0 0 0 0 0 0 0 0 127 0" result="hardAlpha"/>
<feOffset dy="4"/>
<feGaussianBlur stdDeviation="10"/>
<feComposite in2="hardAlpha" operator="out"/>
<feColorMatrix type="matrix" values="0 0 0 0 0 0 0 0 0 0 0 0 0 0 0 0 0 0 0.08 0"/>
<feBlend mode="normal" in2="BackgroundImageFix" result="effect1_dropShadow_339_671"/>
<feBlend mode="normal" in="SourceGraphic" in2="effect1_dropShadow_339_671" result="shape"/>
</filter>
<clipPath id="clip0_339_671">
<rect x="20" y="16" width="64" height="64" rx="12" fill="white"/>
</clipPath>
</defs>
</svg>
