<svg width="104" height="104" viewBox="0 0 104 104" fill="none" xmlns="http://www.w3.org/2000/svg">
<g filter="url(#filter0_d_339_225)">
<g clip-path="url(#clip0_339_225)">
<rect x="20" y="16" width="64" height="64" rx="12" fill="white"/>
<g clip-path="url(#clip1_339_225)">
<path d="M38.113 51.9437C37.3275 51.9441 36.5716 51.6442 36 51.1053V53.9195C36 54.2533 36.1326 54.5735 36.3687 54.8096C36.6048 55.0457 36.925 55.1783 37.2588 55.1783H53.1784V51.9437H38.113Z" fill="#388FF3"/>
<path d="M53.1784 56.1562H48.4447V58.3043C48.4447 58.9881 48.4447 60.5894 45.0957 60.5894H44.0832C44.0185 60.5886 43.9543 60.6008 43.8944 60.625C43.8344 60.6492 43.7798 60.6852 43.7338 60.7306C43.6878 60.7761 43.6513 60.8303 43.6264 60.89C43.6015 60.9497 43.5886 61.0137 43.5886 61.0784C43.5886 61.1431 43.6015 61.2071 43.6264 61.2668C43.6513 61.3265 43.6878 61.3807 43.7338 61.4262C43.7798 61.4717 43.8344 61.5076 43.8944 61.5318C43.9543 61.5561 44.0185 61.5682 44.0832 61.5674H53.2217C53.1931 61.401 53.1786 61.2325 53.1784 61.0636V56.1562Z" fill="#388FF3"/>
<path d="M56.1657 36.3687H66.0125C66.4559 36.3683 66.8939 36.4672 67.2941 36.6582L67.2977 34.2094C67.2979 34.0439 67.2655 33.88 67.2024 33.7271C67.1392 33.5741 67.0465 33.4351 66.9296 33.318C66.8127 33.2009 66.6738 33.108 66.5209 33.0446C66.3681 32.9812 66.2042 32.9486 66.0387 32.9486H37.2599C37.0945 32.9486 36.9308 32.9812 36.778 33.0445C36.6253 33.1077 36.4865 33.2005 36.3696 33.3174C36.2527 33.4344 36.1599 33.5732 36.0967 33.7259C36.0334 33.8787 36.0009 34.0424 36.0009 34.2078V48.8535C36.0009 49.1309 36.0555 49.4056 36.1617 49.6618C36.2678 49.9181 36.4234 50.1509 36.6195 50.347C36.8156 50.5432 37.0485 50.6987 37.3047 50.8049C37.561 50.911 37.8356 50.9657 38.113 50.9657H53.1784V39.3562C53.1792 38.5642 53.4942 37.8048 54.0542 37.2447C54.6143 36.6847 55.3736 36.3696 56.1657 36.3687Z" fill="#388FF3"/>
<path d="M66.0125 37.3688H56.1657C55.6385 37.3688 55.133 37.5782 54.7603 37.9509C54.3876 38.3236 54.1782 38.8292 54.1782 39.3563V61.0638C54.1782 61.5909 54.3876 62.0964 54.7603 62.4691C55.133 62.8419 55.6385 63.0513 56.1657 63.0513H66.0125C66.5396 63.0513 67.0451 62.8419 67.4178 62.4691C67.7906 62.0964 68 61.5909 68 61.0638V39.3563C68 38.8292 67.7906 38.3236 67.4178 37.9509C67.0451 37.5782 66.5396 37.3688 66.0125 37.3688ZM61.7087 61.8053H60.4696C60.337 61.8053 60.2098 61.7526 60.116 61.6588C60.0223 61.5651 59.9696 61.4379 59.9696 61.3053C59.9696 61.1727 60.0223 61.0455 60.116 60.9517C60.2098 60.858 60.337 60.8053 60.4696 60.8053H61.7087C61.8413 60.8053 61.9685 60.858 62.0623 60.9517C62.156 61.0455 62.2087 61.1727 62.2087 61.3053C62.2087 61.4379 62.156 61.5651 62.0623 61.6588C61.9685 61.7526 61.8413 61.8053 61.7087 61.8053ZM63.641 39.8379H58.5375C58.4049 39.8379 58.2777 39.7852 58.1839 39.6915C58.0902 39.5977 58.0375 39.4705 58.0375 39.3379C58.0375 39.2053 58.0902 39.0781 58.1839 38.9843C58.2777 38.8906 58.4049 38.8379 58.5375 38.8379H63.6411C63.7737 38.8379 63.9009 38.8906 63.9947 38.9843C64.0884 39.0781 64.1411 39.2053 64.1411 39.3379C64.1411 39.4705 64.0884 39.5977 63.9947 39.6915C63.9009 39.7852 63.7737 39.8379 63.6411 39.8379H63.641Z" fill="#388FF3"/>
</g>
</g>
<rect x="20.5" y="16.5" width="63" height="63" rx="11.5" stroke="#EAEDF0"/>
</g>
<defs>
<filter id="filter0_d_339_225" x="0" y="0" width="104" height="104" filterUnits="userSpaceOnUse" color-interpolation-filters="sRGB">
<feFlood flood-opacity="0" result="BackgroundImageFix"/>
<feColorMatrix in="SourceAlpha" type="matrix" values="0 0 0 0 0 0 0 0 0 0 0 0 0 0 0 0 0 0 127 0" result="hardAlpha"/>
<feOffset dy="4"/>
<feGaussianBlur stdDeviation="10"/>
<feComposite in2="hardAlpha" operator="out"/>
<feColorMatrix type="matrix" values="0 0 0 0 0 0 0 0 0 0 0 0 0 0 0 0 0 0 0.08 0"/>
<feBlend mode="normal" in2="BackgroundImageFix" result="effect1_dropShadow_339_225"/>
<feBlend mode="normal" in="SourceGraphic" in2="effect1_dropShadow_339_225" result="shape"/>
</filter>
<clipPath id="clip0_339_225">
<rect x="20" y="16" width="64" height="64" rx="12" fill="white"/>
</clipPath>
<clipPath id="clip1_339_225">
<rect width="32" height="32" fill="white" transform="translate(36 32)"/>
</clipPath>
</defs>
</svg>
