<svg width="54" height="54" viewBox="0 0 54 54" fill="none" xmlns="http://www.w3.org/2000/svg">
<g filter="url(#filter0_d_887_6302)">
<path d="M34.4671 13.4C35.6453 13.4 36.6004 14.342 36.6004 15.5041L36.6004 19.0959C36.6004 20.258 35.6453 21.2 34.4671 21.2H31.2671C30.0889 21.2 29.1337 20.258 29.1337 19.0959L29.1337 15.5041C29.1337 14.342 30.0888 13.4 31.2671 13.4L34.4671 13.4Z" stroke="#388FF3" stroke-width="2" stroke-linecap="round" stroke-linejoin="round" shape-rendering="crispEdges"/>
<path d="M19.5337 13.4C18.3555 13.4 17.4004 14.342 17.4004 15.5041L17.4004 19.0959C17.4004 20.258 18.3555 21.2 19.5337 21.2H22.7337C23.9119 21.2 24.8671 20.258 24.8671 19.0959L24.8671 15.5041C24.8671 14.342 23.9119 13.4 22.7337 13.4L19.5337 13.4Z" stroke="#388FF3" stroke-width="2" stroke-linecap="round" stroke-linejoin="round" shape-rendering="crispEdges"/>
<path d="M34.4671 24.8C35.6453 24.8 36.6004 25.742 36.6004 26.9041V30.4959C36.6004 31.658 35.6453 32.6 34.4671 32.6H31.2671C30.0889 32.6 29.1337 31.658 29.1337 30.4959L29.1337 26.9041C29.1337 25.742 30.0889 24.8 31.2671 24.8H34.4671Z" stroke="#388FF3" stroke-width="2" stroke-linecap="round" stroke-linejoin="round" shape-rendering="crispEdges"/>
<path d="M19.5337 24.8C18.3555 24.8 17.4004 25.742 17.4004 26.9041L17.4004 30.4959C17.4004 31.658 18.3555 32.6 19.5337 32.6H22.7337C23.9119 32.6 24.8671 31.658 24.8671 30.4959L24.8671 26.9041C24.8671 25.742 23.9119 24.8 22.7337 24.8H19.5337Z" stroke="#388FF3" stroke-width="2" stroke-linecap="round" stroke-linejoin="round" shape-rendering="crispEdges"/>
</g>
<defs>
<filter id="filter0_d_887_6302" x="0.400391" y="0.399963" width="53.2002" height="53.2001" filterUnits="userSpaceOnUse" color-interpolation-filters="sRGB">
<feFlood flood-opacity="0" result="BackgroundImageFix"/>
<feColorMatrix in="SourceAlpha" type="matrix" values="0 0 0 0 0 0 0 0 0 0 0 0 0 0 0 0 0 0 127 0" result="hardAlpha"/>
<feOffset dy="4"/>
<feGaussianBlur stdDeviation="8"/>
<feComposite in2="hardAlpha" operator="out"/>
<feColorMatrix type="matrix" values="0 0 0 0 0.0666667 0 0 0 0 0.486275 0 0 0 0 0.960784 0 0 0 0.4 0"/>
<feBlend mode="normal" in2="BackgroundImageFix" result="effect1_dropShadow_887_6302"/>
<feBlend mode="normal" in="SourceGraphic" in2="effect1_dropShadow_887_6302" result="shape"/>
</filter>
</defs>
</svg>
