<svg width="104" height="104" viewBox="0 0 104 104" fill="none" xmlns="http://www.w3.org/2000/svg">
<g filter="url(#filter0_d_339_1585)">
<g clip-path="url(#clip0_339_1585)">
<rect x="20" y="16" width="64" height="64" rx="12" fill="white"/>
<g clip-path="url(#clip1_339_1585)">
<path d="M43.1387 32.0076L36 39.1462L41.1521 44.2983L43.5447 41.9055L44.8701 43.231L42.4775 45.6235L43.7949 46.9412L50.9336 39.8025L43.1387 32.0076ZM43.6526 39.6597C43.448 39.8643 43.176 39.9771 42.887 39.9771C42.5979 39.9771 42.3262 39.8645 42.1216 39.6602C41.6995 39.2378 41.6995 38.551 42.1216 38.1292C42.3262 37.9246 42.5979 37.812 42.887 37.812C43.176 37.812 43.448 37.9246 43.6523 38.1289C44.0745 38.551 44.0745 39.2375 43.6526 39.6597Z" fill="#388FF3"/>
<path d="M53.052 56.198L54.3816 57.5276L56.7803 55.1289L58.1057 56.4543L55.707 58.853L57.0242 60.1702L59.4229 57.7715L60.7483 59.0969L58.3496 61.4956L60.854 64L67.9927 56.8613L60.1909 49.0593L53.052 56.198Z" fill="#388FF3"/>
<path d="M67.9966 32L57.9509 35.8965L64.1003 42.0457L67.9966 32Z" fill="#388FF3"/>
<path d="M38.377 55.0093L36.8594 56.5266C36.312 57.0742 36.0103 57.8022 36.0103 58.5767C36.0103 59.3511 36.312 60.0789 36.8594 60.6267L39.3699 63.1372C39.9175 63.6848 40.6455 63.9863 41.4199 63.9863C42.1943 63.9863 42.9224 63.6848 43.47 63.1372L44.9873 61.6199L38.377 55.0093Z" fill="#388FF3"/>
<path d="M59.0376 39.6338L56.395 36.991L39.7021 53.6838L42.345 56.3264L59.0376 39.6338Z" fill="#388FF3"/>
<path d="M59.7932 46.814L63.0056 43.6016L60.363 40.959L43.6702 57.6519L46.3127 60.2944L59.7932 46.814Z" fill="#388FF3"/>
</g>
</g>
<rect x="20.5" y="16.5" width="63" height="63" rx="11.5" stroke="#EAEDF0"/>
</g>
<defs>
<filter id="filter0_d_339_1585" x="0" y="0" width="104" height="104" filterUnits="userSpaceOnUse" color-interpolation-filters="sRGB">
<feFlood flood-opacity="0" result="BackgroundImageFix"/>
<feColorMatrix in="SourceAlpha" type="matrix" values="0 0 0 0 0 0 0 0 0 0 0 0 0 0 0 0 0 0 127 0" result="hardAlpha"/>
<feOffset dy="4"/>
<feGaussianBlur stdDeviation="10"/>
<feComposite in2="hardAlpha" operator="out"/>
<feColorMatrix type="matrix" values="0 0 0 0 0 0 0 0 0 0 0 0 0 0 0 0 0 0 0.08 0"/>
<feBlend mode="normal" in2="BackgroundImageFix" result="effect1_dropShadow_339_1585"/>
<feBlend mode="normal" in="SourceGraphic" in2="effect1_dropShadow_339_1585" result="shape"/>
</filter>
<clipPath id="clip0_339_1585">
<rect x="20" y="16" width="64" height="64" rx="12" fill="white"/>
</clipPath>
<clipPath id="clip1_339_1585">
<rect width="32" height="32" fill="white" transform="translate(36 32)"/>
</clipPath>
</defs>
</svg>
