<svg width="104" height="104" viewBox="0 0 104 104" fill="none" xmlns="http://www.w3.org/2000/svg">
<g filter="url(#filter0_d_339_629)">
<g clip-path="url(#clip0_339_629)">
<rect x="20" y="16" width="64" height="64" rx="12" fill="white"/>
<g clip-path="url(#clip1_339_629)">
<path d="M66.8697 37.1067C65.9877 35.5824 64.7199 34.3041 63.2039 33.4098C61.6402 32.4875 59.8495 32 58.025 32C56.2005 32 54.4096 32.4875 52.846 33.4098C51.3299 34.3041 50.0622 35.5825 49.1802 37.1067C49.0001 37.4179 49.0138 37.8045 49.2154 38.1021L53.2474 44.0536C53.2707 44.0519 53.294 44.05 53.3179 44.05H56.2221L55.6293 42.2714C55.4656 41.7803 55.731 41.2493 56.2222 41.0856C56.7135 40.9219 57.2444 41.1874 57.4081 41.6785L58.025 43.5292L58.6419 41.6785C58.8055 41.1873 59.3364 40.9218 59.8277 41.0856C60.3189 41.2493 60.5844 41.7802 60.4207 42.2714L59.8279 44.05H62.7321C62.7559 44.05 62.7792 44.0518 62.8027 44.0536L66.8345 38.1021C67.0361 37.8045 67.0498 37.4179 66.8697 37.1067Z" fill="#388FF3"/>
<path d="M54.0749 62.0584C54.0749 63.129 54.9459 64 56.0165 64H60.0333C61.1039 64 61.9749 63.129 61.9749 62.0584V45.925H54.0749V62.0584Z" fill="#388FF3"/>
<path d="M38.0083 43.9167H46.9125V53.0876H38.0083V43.9167Z" fill="#388FF3"/>
<path d="M37.0041 62.0583C37.0041 63.1289 37.8751 63.9999 38.9457 63.9999H45.975C47.0456 63.9999 47.9166 63.1289 47.9166 62.0583V54.9624H37.0041V62.0583Z" fill="#388FF3"/>
<path d="M45.9083 33.9416C45.9083 33.0092 45.243 32.3062 44.3608 32.3062C44.1377 32.3062 43.9121 32.3512 43.6903 32.44L40.5341 33.7024C39.6666 34.0494 39.0124 35.0157 39.0124 35.95V42.0417H45.9083V33.9416Z" fill="#388FF3"/>
</g>
</g>
<rect x="20.5" y="16.5" width="63" height="63" rx="11.5" stroke="#EAEDF0"/>
</g>
<defs>
<filter id="filter0_d_339_629" x="0" y="0" width="104" height="104" filterUnits="userSpaceOnUse" color-interpolation-filters="sRGB">
<feFlood flood-opacity="0" result="BackgroundImageFix"/>
<feColorMatrix in="SourceAlpha" type="matrix" values="0 0 0 0 0 0 0 0 0 0 0 0 0 0 0 0 0 0 127 0" result="hardAlpha"/>
<feOffset dy="4"/>
<feGaussianBlur stdDeviation="10"/>
<feComposite in2="hardAlpha" operator="out"/>
<feColorMatrix type="matrix" values="0 0 0 0 0 0 0 0 0 0 0 0 0 0 0 0 0 0 0.08 0"/>
<feBlend mode="normal" in2="BackgroundImageFix" result="effect1_dropShadow_339_629"/>
<feBlend mode="normal" in="SourceGraphic" in2="effect1_dropShadow_339_629" result="shape"/>
</filter>
<clipPath id="clip0_339_629">
<rect x="20" y="16" width="64" height="64" rx="12" fill="white"/>
</clipPath>
<clipPath id="clip1_339_629">
<rect width="32" height="32" fill="white" transform="translate(36 32)"/>
</clipPath>
</defs>
</svg>
