<svg width="104" height="104" viewBox="0 0 104 104" fill="none" xmlns="http://www.w3.org/2000/svg">
<g filter="url(#filter0_d_339_1936)">
<g clip-path="url(#clip0_339_1936)">
<rect x="20" y="16" width="64" height="64" rx="12" fill="white"/>
<path d="M66.4758 46.0116C66.2887 45.6997 64.4416 44.9019 64.4416 44.9019C64.7629 44.736 64.9825 44.7017 64.9825 44.0155C64.9825 43.267 64.9787 43.0175 64.4797 43.0175H62.7868C62.7799 43.0025 62.7724 42.9869 62.7655 42.9713C61.6727 40.5847 61.5261 39.9815 59.8961 39.1694C57.7098 38.0821 53.6109 38.0272 52.0041 38.0272C50.3972 38.0272 46.2983 38.0821 44.1138 39.1694C42.482 39.9803 42.5226 40.3976 41.2445 42.9713C41.2445 42.9782 41.2314 42.9963 41.2195 43.0175H39.5247C39.0294 43.0175 39.0257 43.267 39.0257 44.0155C39.0257 44.7017 39.2453 44.736 39.5665 44.9019C39.5665 44.9019 37.7819 45.7621 37.5324 46.0116C37.2828 46.2611 37.0333 48.0077 37.0333 51.0019C37.0333 53.996 37.2828 56.9902 37.2828 56.9902H38.0276C38.0276 57.8635 38.1561 57.9882 38.5304 57.9882H43.5206C43.8949 57.9882 44.0197 57.8635 44.0197 56.9902H59.9885C59.9885 57.8635 60.1132 57.9882 60.4875 57.9882H65.6025C65.852 57.9882 65.9768 57.8011 65.9768 56.9902H66.7253C66.7253 56.9902 66.9748 53.9337 66.9748 51.0019C66.9748 48.0701 66.6629 46.3235 66.4758 46.0116ZM43.8487 48.8149C42.7127 48.9391 41.5708 49.0028 40.4279 49.0058C39.1542 49.0058 39.1105 49.0875 39.0207 48.2922C38.9869 47.9281 38.9976 47.5613 39.0525 47.1999L39.0918 47.0097H39.2789C40.0275 47.0097 40.7305 47.0415 42.0579 47.4326C42.733 47.6352 43.3681 47.953 43.9348 48.372C44.2068 48.5691 44.2692 48.7563 44.2692 48.7563L43.8487 48.8149ZM59.2661 53.3061L58.9904 53.996H45.0177C45.0177 53.996 45.042 53.958 44.7058 53.2986C44.4563 52.8108 44.7682 52.499 45.2616 52.3218C46.2172 51.9775 49.0099 51.0019 52.0041 51.0019C54.9982 51.0019 57.8464 51.8427 58.7721 52.3218C59.1152 52.499 59.5412 52.6237 59.2661 53.3099V53.3061ZM43.2349 44.7896C43.0335 44.8012 42.8315 44.8027 42.6299 44.794C42.7927 44.5046 42.8831 44.1821 43.0422 43.8452C43.5412 42.7848 44.112 41.5846 45.1281 41.0788C46.5965 40.3477 49.6399 40.0183 52.0041 40.0183C54.3682 40.0183 57.4116 40.3452 58.88 41.0788C59.8961 41.5846 60.4644 42.7854 60.9659 43.8452C61.1262 44.1852 61.2154 44.5102 61.3826 44.8015C61.2579 44.8084 61.1144 44.8015 60.7719 44.7896H43.2349ZM64.9251 48.2897C64.7916 49.0682 64.9163 49.0058 63.5802 49.0058C62.4374 49.0028 61.2955 48.9391 60.1594 48.8149C59.9816 48.7831 59.9311 48.483 60.0733 48.372C60.6373 47.9483 61.2731 47.6301 61.9503 47.4326C63.2777 47.0415 64.025 46.9891 64.7629 47.0153C64.8125 47.0172 64.8596 47.0374 64.8952 47.0719C64.9308 47.1064 64.9523 47.153 64.9556 47.2024C64.9909 47.5655 64.9807 47.9316 64.9251 48.2922V48.2897Z" fill="#388FF3"/>
</g>
<rect x="20.5" y="16.5" width="63" height="63" rx="11.5" stroke="#EAEDF0"/>
</g>
<defs>
<filter id="filter0_d_339_1936" x="0" y="0" width="104" height="104" filterUnits="userSpaceOnUse" color-interpolation-filters="sRGB">
<feFlood flood-opacity="0" result="BackgroundImageFix"/>
<feColorMatrix in="SourceAlpha" type="matrix" values="0 0 0 0 0 0 0 0 0 0 0 0 0 0 0 0 0 0 127 0" result="hardAlpha"/>
<feOffset dy="4"/>
<feGaussianBlur stdDeviation="10"/>
<feComposite in2="hardAlpha" operator="out"/>
<feColorMatrix type="matrix" values="0 0 0 0 0 0 0 0 0 0 0 0 0 0 0 0 0 0 0.08 0"/>
<feBlend mode="normal" in2="BackgroundImageFix" result="effect1_dropShadow_339_1936"/>
<feBlend mode="normal" in="SourceGraphic" in2="effect1_dropShadow_339_1936" result="shape"/>
</filter>
<clipPath id="clip0_339_1936">
<rect x="20" y="16" width="64" height="64" rx="12" fill="white"/>
</clipPath>
</defs>
</svg>
