<svg width="104" height="104" viewBox="0 0 104 104" fill="none" xmlns="http://www.w3.org/2000/svg">
<g filter="url(#filter0_d_339_1897)">
<g clip-path="url(#clip0_339_1897)">
<rect x="20" y="16" width="64" height="64" rx="12" fill="white"/>
<g clip-path="url(#clip1_339_1897)">
<path d="M46.5898 34.4054C46.3385 34.5071 46.1111 34.6507 45.9077 34.8302C46.0573 36.0449 46.6616 37.1638 47.589 37.9058C47.6489 37.9536 47.7326 37.9836 47.8104 37.9836C48.0079 37.9836 48.1694 37.822 48.1634 37.6186C48.1634 37.5109 48.1156 37.4151 48.0378 37.3493C47.1762 36.6552 46.6436 35.5662 46.5898 34.4054Z" fill="#388FF3"/>
<path d="M49.8448 40.6044H54.3205V41.4421H49.8448V40.6044Z" fill="#388FF3"/>
<path d="M49.2345 32.3829H50.4372V33.1488H49.2345V32.3829Z" fill="#388FF3"/>
<path d="M39.8882 35.7278H44.4836C44.9084 34.4054 46.129 33.5139 47.5172 33.5079H48.5165V32.0239V32H41.6594C40.2951 32 39.1881 33.1069 39.1881 34.4712V35.7278H39.8882Z" fill="#388FF3"/>
<path d="M54.8172 39.8863V36.9663H49.3602V39.8863H49.4858H54.6795H54.8172Z" fill="#388FF3"/>
<path d="M63.5352 51.8414C63.3796 51.6918 62.6795 51.4047 61.453 51.4047C60.2264 51.4047 59.5263 51.6919 59.3707 51.8414C59.5263 51.991 60.2263 52.2782 61.453 52.2782C62.6796 52.2782 63.3796 51.991 63.5352 51.8414Z" fill="#388FF3"/>
<path d="M48.5045 59.0935H55.5292V52.015C55.5292 51.9791 55.5292 51.9432 55.5352 51.9073C55.0625 51.2251 54.3325 50.2618 53.2196 48.8916C51.8493 47.2162 50.4672 45.6365 50.0722 45.1877C48.4567 45.2715 47.1822 46.5999 47.1702 48.2214C47.2181 48.5804 47.6668 52.2064 47.6668 53.4869C47.6668 54.528 47.2241 57.442 47.1702 57.7831C47.1822 58.5131 47.7745 59.0935 48.5045 59.0935Z" fill="#388FF3"/>
<path d="M40.1994 36.4458L39.5053 41.813H44.2323L43.5382 36.4458H42.9518V40.9095C42.9518 41.107 42.7902 41.2685 42.5928 41.2685C42.3954 41.2685 42.2338 41.107 42.2338 40.9095V36.4458H41.3901V40.9095C41.3901 41.107 41.2286 41.2685 41.0311 41.2685C40.8337 41.2685 40.6722 41.107 40.6722 40.9095V36.4458H40.1994Z" fill="#388FF3"/>
<path d="M57.6474 50.7943C57.0191 51.0456 56.5703 51.3508 56.3669 51.656C56.3549 51.6739 56.3429 51.6919 56.337 51.7098C56.331 51.7098 56.331 51.7098 56.331 51.7158C56.325 51.7338 56.313 51.7457 56.307 51.7637H56.301L56.2831 51.8175H56.2771L56.2592 51.8774V51.8893C56.2532 51.9013 56.2532 51.9193 56.2532 51.9312C56.2532 51.9372 56.2472 51.9432 56.2472 51.9492V52.003C56.2532 52.1347 56.2951 52.2544 56.3669 52.362C56.5703 52.6672 57.0191 52.9724 57.6474 53.2237C57.8867 53.3134 58.132 53.3972 58.3774 53.463C58.6048 53.5229 58.8381 53.5827 59.0894 53.6246C59.8673 53.7742 60.6571 53.846 61.4529 53.84C62.494 53.84 63.4873 53.7263 64.337 53.511L66.4133 52.5177C66.4612 52.4698 66.503 52.416 66.5389 52.3621C66.7005 52.1467 66.7005 51.8595 66.5389 51.6441C66.3355 51.339 65.8867 51.0338 65.2585 50.7824C64.2473 50.3816 62.895 50.1661 61.4529 50.1661C60.7528 50.1661 60.0527 50.22 59.3586 50.3277C59.1013 50.3696 58.856 50.4235 58.6227 50.4773C58.2876 50.5609 57.9645 50.6627 57.6474 50.7943ZM61.4529 50.6866C62.8531 50.6866 64.2711 51.0396 64.2711 51.8414C64.2711 52.6432 62.853 52.9962 61.4529 52.9962C60.0527 52.9962 58.6347 52.6372 58.6347 51.8414C58.6347 51.0456 60.0527 50.6866 61.4529 50.6866Z" fill="#388FF3"/>
<path d="M61.4529 54.5699C60.6631 54.5699 59.8673 54.5041 59.0894 54.3724C58.8381 54.3306 58.5928 54.2767 58.3654 54.2169C57.4679 53.9895 56.7379 53.6664 56.2473 53.2715V60.8885C56.2473 61.2834 56.7199 61.7143 57.5277 62.0553L57.6474 62.1032C57.9347 62.2169 58.2338 62.3126 58.533 62.3844C59.3049 62.5759 60.0947 62.6896 60.8905 62.7135V55.4017C60.8905 55.264 60.9683 55.1384 61.094 55.0786L62.1949 54.552C61.9495 54.5639 61.7042 54.5699 61.4529 54.5699Z" fill="#388FF3"/>
<path d="M61.6085 55.629V64L62.9368 63.3657L66.6586 61.5826V53.2715C66.168 53.6664 65.444 53.9895 64.5584 54.2169L61.6085 55.629Z" fill="#388FF3"/>
<path d="M57.1148 48.6521C57.2106 48.6342 57.2824 48.5504 57.2884 48.4547C57.3303 48.0358 57.3542 47.6229 57.3542 47.2161C57.3542 46.1869 57.1807 45.2235 56.5524 44.5115C55.9241 43.7995 54.9608 43.4525 53.5845 43.4166C53.5247 43.4106 53.4649 43.4345 53.423 43.4764C53.3931 43.5063 53.3691 43.5422 53.3571 43.5841C53.4888 43.8534 54.1649 44.8586 55.1522 46.187C56.1395 47.5153 56.8755 48.4308 57.1148 48.6521Z" fill="#388FF3"/>
<path d="M44.2981 60.0269C44.3041 59.985 44.9922 55.5093 44.9922 54.0434C44.9922 52.2363 44.3041 46.7374 44.2981 46.6776C44.2921 46.6656 44.2921 46.6477 44.2921 46.6357C44.2921 45.8518 44.4716 45.08 44.8127 44.3799L44.358 42.531H39.3916L38.8052 45.5647L37.3512 59.8354C37.2913 60.3859 37.4709 60.9364 37.8418 61.3433C38.2128 61.7561 38.7394 61.9895 39.2899 61.9895H45.064C44.5673 61.4809 44.2921 60.7928 44.2921 60.0807C44.2921 60.0628 44.2921 60.0448 44.2981 60.0269Z" fill="#388FF3"/>
<path d="M55.5292 60.8885V59.8115H48.5045C47.3737 59.8055 46.4581 58.8901 46.4522 57.7591C46.4522 57.7412 46.4522 57.7232 46.4581 57.7053C46.4641 57.6754 46.9488 54.516 46.9488 53.4869C46.9488 52.2124 46.4581 48.3291 46.4581 48.2872C46.4522 48.2752 46.4522 48.2573 46.4522 48.2453C46.4581 46.163 48.1455 44.4757 50.2278 44.4697C50.3295 44.4697 50.4313 44.5116 50.4971 44.5894C50.515 44.6073 52.1545 46.4562 53.7761 48.4368C54.7095 49.5796 55.3797 50.4533 55.8644 51.1294C56.361 50.5131 57.3722 50.0165 58.7005 49.7292C58.8621 48.1915 59.0356 46.8272 59.0595 46.6118C59.0416 44.1526 57.055 42.172 54.5958 42.16H49.4799C47.8524 42.16 46.3565 43.0456 45.5726 44.4697C45.3632 44.8466 45.2076 45.2535 45.1179 45.6724C45.0461 45.9835 45.0102 46.2947 45.0102 46.6118C45.07 47.0545 45.7102 52.2303 45.7102 54.0433C45.7102 55.5153 45.076 59.6858 45.0102 60.1107C45.0221 60.7988 45.3811 61.439 45.9615 61.804C46.2248 61.9715 46.518 62.0733 46.8232 62.1091L47.0506 62.1211H56.2174C55.7746 61.7561 55.5292 61.3373 55.5292 60.8885ZM52.6332 43.6081C52.6392 43.3567 52.7469 43.1174 52.9323 42.9499C53.1119 42.7763 53.3512 42.6866 53.6025 42.6985C55.1881 42.7404 56.331 43.1832 57.0849 44.0389C58.144 45.2296 58.1559 46.899 58.0063 48.5206C57.9585 49.0052 57.5516 49.3762 57.067 49.3762H56.9772C56.8037 49.3583 56.5883 49.3403 54.5898 46.6478C54.0871 45.9716 53.6204 45.3194 53.2734 44.8048C52.6272 43.8414 52.6272 43.7337 52.6332 43.6081Z" fill="#388FF3"/>
</g>
</g>
<rect x="20.5" y="16.5" width="63" height="63" rx="11.5" stroke="#EAEDF0"/>
</g>
<defs>
<filter id="filter0_d_339_1897" x="0" y="0" width="104" height="104" filterUnits="userSpaceOnUse" color-interpolation-filters="sRGB">
<feFlood flood-opacity="0" result="BackgroundImageFix"/>
<feColorMatrix in="SourceAlpha" type="matrix" values="0 0 0 0 0 0 0 0 0 0 0 0 0 0 0 0 0 0 127 0" result="hardAlpha"/>
<feOffset dy="4"/>
<feGaussianBlur stdDeviation="10"/>
<feComposite in2="hardAlpha" operator="out"/>
<feColorMatrix type="matrix" values="0 0 0 0 0 0 0 0 0 0 0 0 0 0 0 0 0 0 0.08 0"/>
<feBlend mode="normal" in2="BackgroundImageFix" result="effect1_dropShadow_339_1897"/>
<feBlend mode="normal" in="SourceGraphic" in2="effect1_dropShadow_339_1897" result="shape"/>
</filter>
<clipPath id="clip0_339_1897">
<rect x="20" y="16" width="64" height="64" rx="12" fill="white"/>
</clipPath>
<clipPath id="clip1_339_1897">
<rect width="32" height="32" fill="white" transform="translate(36 32)"/>
</clipPath>
</defs>
</svg>
