<svg width="28" height="28" viewBox="0 0 28 28" fill="none" xmlns="http://www.w3.org/2000/svg">
<path d="M5.17724 2.79993C3.86422 2.79993 2.7998 3.89898 2.7998 5.25472L2.79982 9.44518C2.79982 10.8009 3.86423 11.9 5.17725 11.9H22.8224C24.1354 11.9 25.1998 10.8009 25.1998 9.44518L25.1998 5.25472C25.1998 3.89898 24.1354 2.79993 22.8224 2.79993L5.17724 2.79993Z" stroke="#D5D8DB" stroke-width="2.5" stroke-linecap="round" stroke-linejoin="round"/>
<path d="M5.17725 16.1C3.86423 16.1 2.79981 17.199 2.79981 18.5548L2.79982 22.7452C2.79982 24.1009 3.86423 25.2 5.17725 25.2H22.8224C24.1354 25.2 25.1998 24.1009 25.1998 22.7452L25.1998 18.5548C25.1998 17.199 24.1354 16.1 22.8224 16.1H5.17725Z" stroke="#D5D8DB" stroke-width="2.5" stroke-linecap="round" stroke-linejoin="round"/>
</svg>
