<svg width="104" height="104" viewBox="0 0 104 104" fill="none" xmlns="http://www.w3.org/2000/svg">
<g filter="url(#filter0_d_339_718)">
<g clip-path="url(#clip0_339_718)">
<rect x="20" y="16" width="64" height="64" rx="12" fill="white"/>
<path d="M54.6767 41.4984C54.7967 41.3517 54.9301 41.2218 55.0734 41.1051C52.2654 40.5328 50.6211 41.7181 48.9901 43.5884C51.9981 43.9076 52.699 43.8691 54.6767 41.4984Z" fill="#388FF3"/>
<path d="M62.6399 48.9416C61.8292 48.9416 61.063 49.128 60.3736 49.4519L59.3901 47.8915C61.2464 46.9317 62.6736 47.3386 64.4267 47.2417C65.0567 47.2417 65.61 46.8884 65.8766 46.3184C66.1433 45.7484 66.0566 45.0951 65.6533 44.6151L60.0466 37.9284C59.5366 37.3217 58.71 37.1451 58.0199 37.4517H58.0166L55.8 36.405C55.47 36.2484 55.07 36.3917 54.9134 36.725C54.7567 37.0583 54.9001 37.455 55.2333 37.6117L57.0733 38.4817C56.8676 39.0163 56.9749 39.7084 57.41 40.1983L59.1767 42.205C59.2867 42.3283 59.2834 42.515 59.17 42.6349C59.0633 42.7483 58.8934 42.7683 58.7633 42.6816L57.78 42.0383C57.11 41.5983 56.2167 41.7317 55.7 42.3516C53.27 45.2649 52.04 45.2749 48.5267 44.8749C47.1866 44.7183 46.1034 44.2449 45.3067 43.4649C43.9867 42.1716 42.4034 41.3683 40.7301 41.145L38.2235 40.8117C37.2671 40.68 36.4068 41.429 36.4068 42.4017C36.4068 42.985 36.7234 43.5218 37.2335 43.805C38.5369 44.5283 42.9268 46.9683 44.5802 48.025C44.9717 48.2748 45.3004 48.5601 45.5862 48.8658L44.5245 49.987C43.636 49.333 42.5427 48.9417 41.3568 48.9417C38.4034 48.9417 36 51.3451 36 54.3017C36 57.255 38.4034 59.6584 41.3567 59.6584C44.3133 59.6584 46.7167 57.255 46.7167 54.3017C46.7167 53.0109 46.2583 51.8258 45.4961 50.8998L46.379 49.9674C47.2306 51.5583 47.2234 53.4123 47.0933 54.5984C46.9599 55.7849 47.8955 56.8151 49.08 56.8151H53.43C54.32 56.8151 55.1134 56.2151 55.3566 55.3584L56.4533 51.4751C56.7732 50.3411 57.4257 49.3657 58.2829 48.6362L59.2436 50.1603C58.0477 51.1439 57.2833 52.6347 57.2833 54.3018C57.2833 57.2551 59.6866 59.6584 62.6399 59.6584C65.5966 59.6584 67.9999 57.2551 67.9999 54.3018C68 51.345 65.5966 48.9416 62.6399 48.9416ZM44.0495 54.3004C44.0495 55.7845 42.8422 56.9919 41.3581 56.9919C39.8737 56.9919 38.6663 55.7846 38.6663 54.3004C38.6663 52.8164 39.8736 51.609 41.3581 51.609C41.8326 51.609 42.2781 51.7335 42.6656 51.9499L41.6842 52.9864C41.5792 52.9602 41.4711 52.9423 41.3581 52.9423C40.6091 52.9423 39.9997 53.5515 39.9997 54.3004C39.9997 55.0493 40.6091 55.6584 41.3581 55.6584C42.1068 55.6584 42.7162 55.0493 42.7162 54.3004C42.7162 54.1619 42.6892 54.0309 42.6506 53.9049L43.6326 52.8678C43.8952 53.2833 44.0495 53.7737 44.0495 54.3004ZM62.6416 56.9919C61.1575 56.9919 59.9501 55.7846 59.9501 54.3004C59.9501 53.5852 60.2324 52.936 60.6891 52.4534L61.4506 53.6615C61.3474 53.8528 61.2834 54.0683 61.2834 54.3004C61.2834 55.0493 61.8928 55.6585 62.6415 55.6585C63.3902 55.6585 63.9996 55.0493 63.9996 54.3004C63.9996 53.5515 63.3902 52.9424 62.6415 52.9424C62.6197 52.9424 62.5993 52.9478 62.5777 52.9488L61.8157 51.7399C62.0761 51.6556 62.3534 51.609 62.6415 51.609C64.1256 51.609 65.3329 52.8163 65.3329 54.3004C65.333 55.7845 64.1256 56.9919 62.6416 56.9919Z" fill="#388FF3"/>
</g>
<rect x="20.5" y="16.5" width="63" height="63" rx="11.5" stroke="#EAEDF0"/>
</g>
<defs>
<filter id="filter0_d_339_718" x="0" y="0" width="104" height="104" filterUnits="userSpaceOnUse" color-interpolation-filters="sRGB">
<feFlood flood-opacity="0" result="BackgroundImageFix"/>
<feColorMatrix in="SourceAlpha" type="matrix" values="0 0 0 0 0 0 0 0 0 0 0 0 0 0 0 0 0 0 127 0" result="hardAlpha"/>
<feOffset dy="4"/>
<feGaussianBlur stdDeviation="10"/>
<feComposite in2="hardAlpha" operator="out"/>
<feColorMatrix type="matrix" values="0 0 0 0 0 0 0 0 0 0 0 0 0 0 0 0 0 0 0.08 0"/>
<feBlend mode="normal" in2="BackgroundImageFix" result="effect1_dropShadow_339_718"/>
<feBlend mode="normal" in="SourceGraphic" in2="effect1_dropShadow_339_718" result="shape"/>
</filter>
<clipPath id="clip0_339_718">
<rect x="20" y="16" width="64" height="64" rx="12" fill="white"/>
</clipPath>
</defs>
</svg>
