<svg width="20" height="20" viewBox="0 0 20 20" fill="none" xmlns="http://www.w3.org/2000/svg">
<path d="M17.2195 15.6425C17.2195 15.6425 16.2539 16.5909 16.0173 16.8689C15.6318 17.2802 15.1777 17.4745 14.5823 17.4745C14.5251 17.4745 14.464 17.4745 14.4068 17.4706C13.2733 17.3983 12.22 16.9565 11.43 16.5794C9.26986 15.5359 7.3731 14.0543 5.79692 12.1767C4.49553 10.6113 3.62538 9.16405 3.04911 7.61014C2.69418 6.66179 2.56442 5.92292 2.62167 5.22594C2.65983 4.78034 2.83157 4.4109 3.14833 4.09479L4.44973 2.79605C4.63673 2.62085 4.83519 2.52563 5.02982 2.52563C5.27026 2.52563 5.4649 2.67036 5.58702 2.79224C5.59084 2.79605 5.59465 2.79986 5.59847 2.80366C5.83127 3.02076 6.05262 3.24546 6.28542 3.48541C6.40373 3.60728 6.52586 3.72916 6.64798 3.85484L7.68987 4.89459C8.09441 5.29831 8.09441 5.67155 7.68987 6.07527C7.57919 6.18572 7.47233 6.29617 7.36165 6.40281C7.04108 6.73035 7.29291 6.47903 6.96088 6.7761C6.95325 6.78372 6.94561 6.78753 6.9418 6.79514C6.61359 7.12268 6.67465 7.44261 6.74334 7.6597C6.74716 7.67113 6.75098 7.68255 6.75479 7.69398C7.02576 8.34906 7.4074 8.96605 7.9875 9.70112L7.99131 9.70493C9.04464 10.9999 10.1552 12.0091 11.3803 12.7823C11.5368 12.8813 11.6971 12.9613 11.8497 13.0375C11.9871 13.106 12.1169 13.1708 12.2275 13.2393C12.2428 13.2469 12.2581 13.2584 12.2733 13.266C12.4031 13.3307 12.5252 13.3612 12.6512 13.3612C12.9679 13.3612 13.1664 13.1632 13.2313 13.0984L13.9793 12.3519C14.1091 12.2224 14.3152 12.0662 14.5556 12.0662C14.7922 12.0662 14.9869 12.2148 15.1052 12.3442C15.109 12.3481 15.109 12.3481 15.1128 12.3519L17.2156 14.4504C17.6087 14.8389 17.2195 15.6425 17.2195 15.6425Z" stroke="#B8BBBD" stroke-width="1.5" stroke-linecap="round" stroke-linejoin="round"/>
</svg>
