<svg width="104" height="104" viewBox="0 0 104 104" fill="none" xmlns="http://www.w3.org/2000/svg">
<g filter="url(#filter0_d_339_1685)">
<g clip-path="url(#clip0_339_1685)">
<rect x="20" y="16" width="64" height="64" rx="12" fill="white"/>
<g clip-path="url(#clip1_339_1685)">
<path d="M67.0615 63.2808C66.1455 62.5789 65.1545 61.9805 64.1067 61.4968L60.3608 59.7673C60.1755 60.2954 59.6912 61.4771 58.7339 62.6653C58.3293 63.1675 57.8879 63.6125 57.4138 64H68L67.0615 63.2808Z" fill="#388FF3"/>
<path d="M45.2661 62.6653C44.3088 61.4771 43.8245 60.2954 43.6392 59.7673L39.8933 61.4968C38.8455 61.9805 37.8545 62.5789 36.9385 63.2808L36 64H46.5862C46.1123 63.6125 45.6707 63.1677 45.2661 62.6653Z" fill="#388FF3"/>
<path d="M58.103 58.1248V57.9114C56.4509 59.3003 54.3215 60.1382 52 60.1382C49.6785 60.1382 47.5491 59.3003 45.8972 57.9114V58.1248C45.8972 58.4895 45.6833 58.8237 45.3525 58.9763C45.3525 58.9763 46.7993 64 52.0002 64C57.2009 64 58.6477 58.9763 58.6477 58.9763C58.3167 58.8237 58.103 58.4895 58.103 58.1248Z" fill="#388FF3"/>
<path d="M52 58.2622C56.2046 58.2622 59.625 54.8403 59.625 50.634V47.2571H44.375V50.634C44.375 54.8403 47.7957 58.2622 52 58.2622Z" fill="#388FF3"/>
<path d="M42.3975 45.3811H61.6025C62.1204 45.3811 62.54 44.9612 62.54 44.4434C62.54 43.9253 62.1204 43.5054 61.6025 43.5054H60.8149V42.5356C60.8149 39.5127 59.2866 36.8408 56.9626 35.2512V39.2085C56.9626 39.7266 56.543 40.1465 56.0251 40.1465C55.5076 40.1465 55.0876 39.7266 55.0876 39.2085V34.6548C55.0876 34.53 55.1125 34.4109 55.157 34.302C54.4556 34.032 53.7114 33.8491 52.9375 33.7668V40.3589C52.9375 40.877 52.5176 41.2969 52 41.2969C51.4822 41.2969 51.0625 40.877 51.0625 40.3589V33.7668C50.2886 33.8489 49.5447 34.032 48.8435 34.3018C48.8877 34.4109 48.9126 34.5298 48.9126 34.6548V39.2085C48.9126 39.7266 48.4929 40.1465 47.9751 40.1465C47.4573 40.1465 47.0376 39.7266 47.0376 39.2085V35.2507C44.7134 36.8403 43.1848 39.5127 43.1848 42.5356V43.5054H42.3972C41.8796 43.5054 41.4597 43.9253 41.4597 44.4434C41.4597 44.9612 41.8796 45.3811 42.3975 45.3811Z" fill="#388FF3"/>
<path d="M56.9626 34.6548C56.9626 34.1367 56.543 33.7168 56.0251 33.7168C55.6323 33.7168 55.2961 33.959 55.157 34.3022C55.7981 34.5491 56.4036 34.8687 56.9626 35.2512V34.6548Z" fill="#388FF3"/>
<path d="M47.9753 33.7168C47.4575 33.7168 47.0378 34.1367 47.0378 34.6548V35.2507C47.5969 34.8682 48.2024 34.5486 48.8435 34.3018C48.7041 33.959 48.3682 33.7168 47.9753 33.7168Z" fill="#388FF3"/>
<path d="M52.9375 33.7668V32.938C52.9375 32.4199 52.5178 32 52 32C51.4822 32 51.0625 32.4199 51.0625 32.938V33.7668C51.3706 33.7339 51.6833 33.7168 52 33.7168C52.3167 33.7168 52.6294 33.7339 52.9375 33.7668Z" fill="#388FF3"/>
</g>
</g>
<rect x="20.5" y="16.5" width="63" height="63" rx="11.5" stroke="#EAEDF0"/>
</g>
<defs>
<filter id="filter0_d_339_1685" x="0" y="0" width="104" height="104" filterUnits="userSpaceOnUse" color-interpolation-filters="sRGB">
<feFlood flood-opacity="0" result="BackgroundImageFix"/>
<feColorMatrix in="SourceAlpha" type="matrix" values="0 0 0 0 0 0 0 0 0 0 0 0 0 0 0 0 0 0 127 0" result="hardAlpha"/>
<feOffset dy="4"/>
<feGaussianBlur stdDeviation="10"/>
<feComposite in2="hardAlpha" operator="out"/>
<feColorMatrix type="matrix" values="0 0 0 0 0 0 0 0 0 0 0 0 0 0 0 0 0 0 0.08 0"/>
<feBlend mode="normal" in2="BackgroundImageFix" result="effect1_dropShadow_339_1685"/>
<feBlend mode="normal" in="SourceGraphic" in2="effect1_dropShadow_339_1685" result="shape"/>
</filter>
<clipPath id="clip0_339_1685">
<rect x="20" y="16" width="64" height="64" rx="12" fill="white"/>
</clipPath>
<clipPath id="clip1_339_1685">
<rect width="32" height="32" fill="white" transform="translate(36 32)"/>
</clipPath>
</defs>
</svg>
