<svg width="104" height="104" viewBox="0 0 104 104" fill="none" xmlns="http://www.w3.org/2000/svg">
<g filter="url(#filter0_d_339_755)">
<g clip-path="url(#clip0_339_755)">
<rect x="20" y="16" width="64" height="64" rx="12" fill="white"/>
<g clip-path="url(#clip1_339_755)">
<g clip-path="url(#clip2_339_755)">
<path d="M58.6999 36.8H56.2999V34.4C56.2984 33.0752 55.225 32.0015 53.8999 32H49.0999C47.7751 32.0015 46.7014 33.0752 46.6999 34.4V36.8H44.2999C42.0918 36.8023 40.3024 38.5917 40.3 40.7999V45.5999C40.3015 46.925 41.3752 47.9984 42.7 47.9999H46.6999V47.2001C46.6999 46.7583 47.0582 46.4 47.5 46.4C47.9418 46.4 48.3001 46.7583 48.3001 47.2001V47.9999H54.7V47.2001C54.7 46.7583 55.0583 46.4 55.5001 46.4C55.9419 46.4 56.2999 46.7583 56.2999 47.2001V47.9999H60.3001C61.6249 47.9984 62.6986 46.925 62.7001 45.5999V40.7999C62.6978 38.5918 60.9083 36.8024 58.6999 36.8ZM54.7 36.8H48.3001V34.4C48.3007 33.9585 48.6584 33.6005 49.0999 33.5999H53.8999C54.3416 33.6005 54.6994 33.9585 54.7 34.4V36.8ZM65.1001 51.2H64.3V59.9999C64.2918 60.2435 64.2672 60.4862 64.2265 60.7265C66.1208 60.3764 67.4963 58.7261 67.5001 56.8001V53.6C67.4986 52.2752 66.4249 51.2015 65.1001 51.2ZM38.7001 51.2H37.9C36.5752 51.2015 35.5015 52.2752 35.5 53.6V56.8001C35.5035 58.7261 36.8792 60.3764 38.7734 60.7265C38.7328 60.4862 38.7084 60.2434 38.7001 59.9999V51.2ZM56.2999 49.6001V52.0001C56.2999 52.4418 55.9419 52.7999 55.5001 52.7999C55.0583 52.7999 54.7 52.4419 54.7 52.0001V49.6001H48.3001V52.0001C48.3001 52.4418 47.9418 52.7999 47.5 52.7999C47.0582 52.7999 46.6999 52.4419 46.6999 52.0001V49.6001H42.7C41.8317 49.5971 40.9884 49.3089 40.3 48.7797V59.9999C40.3023 62.2083 42.0917 63.9978 44.2999 64.0001H58.6999C60.9083 63.9978 62.6978 62.2083 62.7001 59.9999V48.7797C62.0116 49.3088 61.1684 49.5971 60.3001 49.6001H56.2999Z" fill="#388FF3"/>
</g>
</g>
</g>
<rect x="20.5" y="16.5" width="63" height="63" rx="11.5" stroke="#EAEDF0"/>
</g>
<defs>
<filter id="filter0_d_339_755" x="0" y="0" width="104" height="104" filterUnits="userSpaceOnUse" color-interpolation-filters="sRGB">
<feFlood flood-opacity="0" result="BackgroundImageFix"/>
<feColorMatrix in="SourceAlpha" type="matrix" values="0 0 0 0 0 0 0 0 0 0 0 0 0 0 0 0 0 0 127 0" result="hardAlpha"/>
<feOffset dy="4"/>
<feGaussianBlur stdDeviation="10"/>
<feComposite in2="hardAlpha" operator="out"/>
<feColorMatrix type="matrix" values="0 0 0 0 0 0 0 0 0 0 0 0 0 0 0 0 0 0 0.08 0"/>
<feBlend mode="normal" in2="BackgroundImageFix" result="effect1_dropShadow_339_755"/>
<feBlend mode="normal" in="SourceGraphic" in2="effect1_dropShadow_339_755" result="shape"/>
</filter>
<clipPath id="clip0_339_755">
<rect x="20" y="16" width="64" height="64" rx="12" fill="white"/>
</clipPath>
<clipPath id="clip1_339_755">
<rect width="32" height="32" fill="white" transform="translate(36 32)"/>
</clipPath>
<clipPath id="clip2_339_755">
<rect width="32" height="32" fill="white" transform="translate(35.5 32)"/>
</clipPath>
</defs>
</svg>
