<svg width="39" height="20" viewBox="0 0 39 20" fill="none" xmlns="http://www.w3.org/2000/svg">
<path d="M13.2992 4.7897C8.22411 3.57047 4.67743 6.46779 2.49587 3.20995C2.48934 3.19683 2.48281 3.19027 2.47628 3.17717C2.41749 3.0854 2.49587 2.9543 2.60037 2.98051C7.09414 4.05555 7.82569 3.38693 9.71333 3.61635C11.4572 3.82611 13.2992 4.7897 13.2992 4.7897Z" fill="#16191D"/>
<path d="M14.1941 5.60904C9.7264 4.94699 6.55855 8.29659 4.16797 5.72048C4.16144 5.71393 4.15491 5.70082 4.14185 5.69427C4.07653 5.62216 4.12225 5.49106 4.22022 5.49762C8.30251 5.79914 9.26265 5.07809 10.9414 5.00599C12.5089 4.94044 14.1941 5.60904 14.1941 5.60904Z" fill="#16191D"/>
<path d="M15.0236 6.66446C11.1241 6.13351 9.4521 9.64699 6.29078 7.49695C6.28425 7.4904 6.27772 7.48384 6.26465 7.47074C6.19934 7.41174 6.21894 7.24132 6.31037 7.24132C9.76561 7.24787 10.667 6.44159 12.1236 6.26462C14.0962 6.02862 15.0236 6.66446 15.0236 6.66446Z" fill="#16191D"/>
<path d="M16.7805 7.82466C14.7426 8.04097 15.0628 9.67972 12.829 9.31265C12.5351 9.26675 12.6004 9.05699 12.731 9.01767C14.6056 8.48016 14.6056 8.11963 15.2783 7.85087C15.9184 7.60834 16.7805 7.82466 16.7805 7.82466Z" fill="#16191D"/>
<path d="M15.8595 7.32001C12.9203 7.379 12.1692 9.49627 9.69366 8.80799C9.31482 8.7031 9.44546 8.41468 9.64794 8.38847C12.4827 7.93618 12.6198 7.51666 13.6714 7.26756C14.6576 7.03159 15.8595 7.32001 15.8595 7.32001Z" fill="#16191D"/>
<path d="M14.1809 4.78323C14.1613 4.816 14.1156 4.82255 14.0829 4.80944C13.4755 4.46203 12.9073 4.05561 12.2542 3.60988C11.6402 3.19691 10.3207 2.63318 7.57746 2.76428C6.27113 2.82983 4.28552 3.09859 2.23458 1.68926C1.73817 1.35495 1.23523 0.784665 0.973967 0.253718C0.947842 0.207826 0.93478 0.148828 0.928248 0.08983C0.921717 0.0308319 0.987029 -0.0150415 1.04583 0.00461854C6.12091 2.04978 7.57093 1.25008 10.7649 1.99079C12.0777 2.29888 13.7041 4.21295 14.1745 4.69145C14.2005 4.71113 14.2005 4.75045 14.1809 4.78323Z" fill="#16191D"/>
<path d="M18.5965 15.9922C18.5376 16.1756 18.5506 16.3921 18.4332 16.5494C18.2894 16.7592 17.9368 16.7788 17.7669 16.5887C17.6559 16.4904 17.6559 16.3331 17.6166 16.2085C17.362 15.0876 17.1138 13.9666 16.8655 12.8391C16.8395 12.7606 16.8655 12.7081 16.9439 12.6754C17.0681 12.6425 17.0811 12.7802 17.1202 12.859C17.4011 13.6259 17.6623 14.3993 17.9498 15.1662C18.0412 15.4285 18.3483 15.3432 18.5506 15.4089C18.7662 15.5464 18.6356 15.8021 18.5965 15.9922Z" fill="#16191D"/>
<path d="M18.9294 12.8983C18.9556 12.9704 18.9163 13.0556 18.838 13.0686C18.7923 13.0752 18.7531 13.0686 18.74 13.0031C18.5505 12.6229 18.3872 12.2231 18.1913 11.8429C17.9367 11.6265 17.6688 11.4037 17.5121 11.0956C17.2312 10.5974 17.2573 9.94849 17.5708 9.46997C17.5969 9.43718 17.6165 9.39786 17.6427 9.36508C17.6884 9.29954 17.7864 9.31265 17.8125 9.39131C17.8321 9.45031 17.8451 9.50929 17.8713 9.56173C18.224 10.6695 18.5637 11.7904 18.9294 12.8983Z" fill="#16191D"/>
<path d="M18.9817 7.62149C18.9687 7.91646 18.8577 8.19177 18.7858 8.47364C18.7792 8.4933 18.7727 8.50641 18.7531 8.51296C18.7074 8.53264 18.6618 8.49985 18.6618 8.45398C18.6682 8.06722 18.8054 7.68704 18.7074 7.30684C18.5638 6.789 18.211 6.33671 18.1849 5.78608C18.1717 5.49766 18.2437 5.2158 18.3025 4.93393C18.0934 4.49475 17.9954 3.99 18.1064 3.5115C18.1261 3.4525 18.1327 3.4525 18.1653 3.49837C18.3678 3.79336 18.6355 4.08834 18.6355 4.47507C18.6095 5.0257 18.309 5.57632 18.5115 6.12695C18.6748 6.61857 19.0274 7.07742 18.9817 7.62149Z" fill="#16191D"/>
<path d="M20.706 5.72059C20.693 6.44164 20.0659 7.01848 20.1379 7.75265C20.1379 8.03452 20.2096 8.32294 20.1769 8.6048C20.1313 8.85388 19.8504 8.89322 19.648 8.95222C19.5304 9.00466 19.3998 8.86701 19.4325 8.74901C19.4325 7.89686 19.4325 7.03816 19.4325 6.18601C19.4455 5.83204 19.5304 5.45839 19.772 5.18965C19.9223 5.01265 20.079 4.83568 20.2423 4.65868C20.2749 4.61934 20.2945 4.57347 20.2881 4.52758C20.2749 4.37026 20.2423 4.23261 20.3142 4.04906C20.4252 3.81964 20.569 3.68198 20.7191 3.53122C20.7453 3.505 20.7844 3.51811 20.791 3.55088C20.8956 4.01629 20.791 4.52102 20.5754 4.94055C20.6277 5.18965 20.706 5.45183 20.706 5.72059Z" fill="#16191D"/>
<path d="M28.9555 3.0853C28.0672 3.33438 27.6557 3.6359 27.3031 3.91777C27.3031 3.91777 28.1065 3.6359 29.2624 3.51137C32.5414 3.15085 32.7308 4.37663 36.4016 2.95419C36.5256 2.93453 36.5583 3.03285 36.5256 3.0853C36.0358 3.93745 35.4937 4.88136 33.4428 4.96658C31.209 5.05836 30.0464 4.16032 27.9496 4.42907C26.6107 4.5995 25.9183 5.01902 25.5329 5.27467C30.1051 4.39629 29.7262 6.41524 34.2069 5.34022C34.2592 5.3271 34.3181 5.31399 34.3703 5.32055C34.4878 5.33365 34.5336 5.47788 34.4617 5.55654C34.4291 5.59586 34.3834 5.6352 34.3507 5.67452C33.7629 6.31035 33.1423 7.00519 31.0521 6.84787C28.5963 6.66432 28.4396 5.13702 23.7498 6.3038C28.2958 6.28414 28.2174 7.77868 31.6401 7.33294C31.7577 7.31984 31.8294 7.46405 31.7381 7.54271C31.6858 7.58858 31.6269 7.62792 31.5812 7.66726C31.0653 8.07365 30.314 8.57183 28.9032 8.28341C25.964 7.66726 26.3364 6.44801 22.5546 7.11663C25.5002 7.19529 25.2979 8.34241 28.322 8.62428C28.322 8.62428 28.322 8.62428 28.3284 8.62428C28.4917 8.64394 28.5376 8.86025 28.4004 8.95203C28.2958 9.02414 28.1782 9.07657 28.0672 9.12246C25.8596 9.98116 24.8341 7.20184 22.1234 7.82457C24.0633 7.995 23.9065 8.65049 25.6571 9.12901C25.8464 9.18146 25.827 9.43711 25.6178 9.45677C23.5409 9.66653 23.7238 8.26375 22.45 8.21131C22.1104 8.1982 21.7969 8.38175 21.627 8.68328C21.1241 9.56164 21.3265 10.3941 21.2938 10.8464C21.4114 11.3184 21.5879 11.7773 21.5943 12.2753C21.6009 12.6228 21.5683 12.9834 21.4571 13.3176C21.2482 14.0124 21.0392 14.7074 20.8236 15.4088C20.7779 15.5529 20.7844 15.7102 20.8366 15.8479C20.915 16.0577 20.9935 16.2609 21.0262 16.4838C21.1045 16.8573 21.0522 17.2441 20.9216 17.6046C20.6473 18.2798 20.3729 18.9549 20.0986 19.6367C20.0463 19.7612 20.0072 19.8924 19.9157 19.9972C19.7786 20.0235 19.7917 19.8465 19.8047 19.7612C20.0725 17.2375 20.3272 14.7138 20.5884 12.1902L20.7976 11.5871C20.3861 11.9411 20.2032 12.4327 19.9353 12.8719C19.9027 12.9767 19.746 12.9964 19.7133 12.8785C19.7394 12.4393 19.7981 12.0002 19.8113 11.5609C19.8504 11.1152 19.8439 10.6629 19.9942 10.2368C20.1639 9.80419 20.4905 9.45677 20.7453 9.08314C21.1632 8.54562 21.4767 7.936 21.6923 7.29361C21.8229 6.90032 22.0974 6.5529 22.45 6.33659C23.6715 5.56309 24.3833 4.89447 25.5395 4.01611C26.6041 3.20983 27.4271 2.58055 27.8975 2.39046C30.0464 1.50553 34.3637 2.45601 38.0606 0.043771C38.152 -0.00867375 38.2696 0.0961981 38.1979 0.246961C37.8517 1.12534 37.4402 1.68907 36.4603 2.17415C33.6387 3.57037 30.399 2.67888 28.9555 3.0853Z" fill="#16191D"/>
<path d="M20.3861 4.59963C20.3861 4.59963 20.1443 4.17355 19.5565 4.12111C19.1123 4.08179 18.91 4.23255 18.91 4.23255C18.91 4.23255 19.4455 4.07523 19.8636 4.44886C20.2815 4.82249 20.0529 5.1437 20.0529 5.1437C20.0529 5.1437 20.5101 4.87494 20.3861 4.59963Z" fill="#16191D"/>
<path d="M20.3598 4.54062C20.3598 4.54062 20.0529 4.21288 19.4258 4.18665C19.4258 4.18665 19.7981 4.27841 19.8439 4.48162C19.9223 4.86837 19.5827 5.38621 19.5174 5.63531C19.4651 5.85818 20.3598 4.54062 20.3598 4.54062Z" fill="#16191D"/>
</svg>
