<svg width="104" height="104" viewBox="0 0 104 104" fill="none" xmlns="http://www.w3.org/2000/svg">
<g filter="url(#filter0_d_339_3820)">
<g clip-path="url(#clip0_339_3820)">
<rect x="20" y="16" width="64" height="64" rx="12" fill="white"/>
<path d="M52.5711 44.8572C52.5711 45.6462 53.2107 46.2857 53.9997 46.2857C54.7886 46.2857 55.4282 45.6462 55.4282 44.8572C55.4282 44.0682 54.7887 43.4286 53.9997 43.4286C53.211 43.4294 52.572 44.0685 52.5711 44.8572Z" fill="#388FF3"/>
<path d="M55.9998 42.8571C56.0005 43.488 56.5118 43.9992 57.1426 44C57.7738 44 58.2855 43.4883 58.2855 42.8571C58.2855 42.2259 57.7738 41.7142 57.1426 41.7142C56.5114 41.7142 55.9998 42.2259 55.9998 42.8571Z" fill="#388FF3"/>
<path d="M43.9968 38.8864C44.0922 38.8696 44.1887 38.8598 44.2854 38.8572C45.31 38.8605 46.1657 39.6391 46.2654 40.6588C46.4578 40.6036 46.6567 40.5742 46.8569 40.5714C47.9627 40.5737 48.9082 41.3675 49.1021 42.4562C49.3886 42.3457 49.6927 42.2879 49.9997 42.2857C50.7803 42.2884 51.5169 42.6476 51.9997 43.2608C52.6809 42.3806 53.8599 42.0532 54.8974 42.4562C55.0912 41.3675 56.0367 40.5737 57.1426 40.5714C57.3428 40.5742 57.5417 40.6036 57.7341 40.6588C57.8338 39.6391 58.6894 38.8605 59.7141 38.8572C59.8109 38.8598 59.9073 38.8696 60.0027 38.8864C60.0026 38.8764 59.9997 38.8672 59.9997 38.8572C60.0017 38.5736 60.0749 38.2951 60.2126 38.0472C59.505 37.2946 58.8751 36.4726 58.3323 35.5938L58.3089 35.5589V35.5592C58.0012 35.0648 57.7644 34.6232 57.5866 34.2633C57.2696 34.4786 56.9252 34.6506 56.5628 34.7751C56.5236 34.7942 56.4823 34.8087 56.4397 34.8181C54.9999 35.2486 53.5022 35.4546 51.9997 35.4287C50.4972 35.4546 48.9998 35.2487 47.5601 34.8183C47.5167 34.8088 47.4748 34.7941 47.435 34.7746C47.0731 34.6502 46.7294 34.4784 46.4128 34.2634C46.2351 34.6232 45.9982 35.0649 45.6905 35.5593V35.5591L45.6671 35.5939C45.1243 36.4728 44.4944 37.2947 43.7869 38.0473C43.9245 38.2952 43.9976 38.5737 43.9996 38.8573C43.9997 38.8672 43.9969 38.8764 43.9968 38.8864Z" fill="#388FF3"/>
<path d="M61.714 39.4285C62.0295 39.4285 62.2854 39.1727 62.2854 38.8571C62.2851 38.5416 62.0295 38.286 61.714 38.2856C61.3984 38.2856 61.1425 38.5415 61.1425 38.8571C61.1425 39.1727 61.3984 39.4285 61.714 39.4285Z" fill="#388FF3"/>
<path d="M58.8569 40.8571C58.8574 41.3303 59.2408 41.7137 59.714 41.7142C60.1874 41.7142 60.5711 41.3305 60.5711 40.8571C60.5711 40.3838 60.1874 40 59.714 40C59.2406 40 58.8569 40.3838 58.8569 40.8571Z" fill="#388FF3"/>
<path d="M51.9997 34.2857C55.3122 34.2857 57.0254 33.4662 57.1409 33.1428C57.0254 32.8195 55.3122 32 51.9997 32C48.6571 32 46.9434 32.8343 46.8557 33.1515C46.9434 33.4514 48.6571 34.2857 51.9997 34.2857Z" fill="#388FF3"/>
<path d="M45.714 42.8571C45.714 43.4883 46.2257 44 46.8569 44C47.4881 44 47.9997 43.4883 47.9997 42.8571C47.9997 42.2259 47.4881 41.7142 46.8569 41.7142C46.226 41.715 45.7147 42.2262 45.714 42.8571Z" fill="#388FF3"/>
<path d="M50.469 58.9467C51.4609 59.2908 52.5397 59.2907 53.5315 58.9462C63.8964 55.3078 65.4662 43.9437 65.6822 41.5614C64.6578 41.2357 63.6817 40.7741 62.7801 40.189C62.479 40.4348 62.1027 40.5698 61.714 40.5714C61.704 40.5714 61.6947 40.5686 61.6849 40.5685C61.7016 40.6638 61.7114 40.7603 61.714 40.8572C61.7127 41.9612 60.818 42.8558 59.714 42.8572C59.6172 42.8545 59.5207 42.8448 59.4254 42.828C59.4255 42.838 59.4283 42.8472 59.4283 42.8572C59.427 44.119 58.4044 45.1415 57.1426 45.1428C56.9424 45.1401 56.7436 45.1107 56.5511 45.0555C56.4774 46.1078 55.7636 47.0063 54.7551 47.3161C53.7467 47.6258 52.6516 47.283 51.9998 46.4534C51.3481 47.283 50.2529 47.6258 49.2445 47.3161C48.236 47.0063 47.5222 46.1078 47.4485 45.0555C47.2561 45.1107 47.0571 45.1401 46.857 45.1428C45.5952 45.1415 44.5726 44.1189 44.5713 42.8572C44.5713 42.8472 44.5741 42.838 44.5742 42.828C44.4789 42.8448 44.3824 42.8545 44.2856 42.8572C43.1816 42.8558 42.2869 41.9612 42.2856 40.8572C42.2882 40.7603 42.298 40.6638 42.3147 40.5685C42.3049 40.5687 42.2956 40.5714 42.2856 40.5714C41.897 40.5697 41.5207 40.4347 41.2196 40.189C40.3181 40.774 39.3422 41.2356 38.318 41.5613C38.5366 43.9445 40.118 55.313 50.469 58.9467Z" fill="#388FF3"/>
<path d="M56.3558 62.7026C56.4398 63.006 56.2627 63.3202 55.9596 63.4054C55.6564 63.4906 55.3416 63.3146 55.2553 63.0117C54.9262 61.8352 54.966 60.586 55.3693 59.4327C54.8994 59.6444 54.4178 59.8462 53.9088 60.0249C52.6727 60.454 51.3281 60.4542 50.0919 60.0254C49.5825 59.8467 49.1004 59.6447 48.6303 59.4329C49.0336 60.5861 49.0733 61.8352 48.7443 63.0118C48.6896 63.2091 48.5336 63.362 48.3354 63.4128C48.1371 63.4636 47.9268 63.4046 47.784 63.2579C47.6412 63.1113 47.5878 62.8995 47.6438 62.7027C47.7162 62.4439 47.7666 62.1794 47.7942 61.9121C45.0652 62.1764 43.8806 62.6234 43.5193 62.8601C44.1638 63.2989 47.0254 64.0001 51.9998 64.0001C56.9741 64.0001 59.8357 63.2989 60.4803 62.8599C60.1189 62.6232 58.9341 62.1762 56.2043 61.9119C56.2325 62.1792 56.2832 62.4437 56.3558 62.7026Z" fill="#388FF3"/>
<path d="M44.2854 41.7144C44.7588 41.7144 45.1426 41.3306 45.1426 40.8572C45.1426 40.3839 44.7588 40.0001 44.2854 40.0001C43.8123 40.0006 43.4288 40.3841 43.4283 40.8572C43.4283 41.3306 43.8121 41.7144 44.2854 41.7144Z" fill="#388FF3"/>
<path d="M48.5711 44.8572C48.5711 45.6462 49.2107 46.2857 49.9997 46.2857C50.7886 46.2857 51.4282 45.6462 51.4282 44.8572C51.4282 44.0682 50.7887 43.4286 49.9997 43.4286C49.211 43.4294 48.572 44.0685 48.5711 44.8572Z" fill="#388FF3"/>
<path d="M42.2854 39.4285C42.601 39.4285 42.8569 39.1727 42.8569 38.8571C42.8569 38.5415 42.6011 38.2856 42.2854 38.2856C41.97 38.286 41.7143 38.5416 41.714 38.8571C41.714 39.1727 41.9699 39.4285 42.2854 39.4285Z" fill="#388FF3"/>
</g>
<rect x="20.5" y="16.5" width="63" height="63" rx="11.5" stroke="#EAEDF0"/>
</g>
<defs>
<filter id="filter0_d_339_3820" x="0" y="0" width="104" height="104" filterUnits="userSpaceOnUse" color-interpolation-filters="sRGB">
<feFlood flood-opacity="0" result="BackgroundImageFix"/>
<feColorMatrix in="SourceAlpha" type="matrix" values="0 0 0 0 0 0 0 0 0 0 0 0 0 0 0 0 0 0 127 0" result="hardAlpha"/>
<feOffset dy="4"/>
<feGaussianBlur stdDeviation="10"/>
<feComposite in2="hardAlpha" operator="out"/>
<feColorMatrix type="matrix" values="0 0 0 0 0 0 0 0 0 0 0 0 0 0 0 0 0 0 0.08 0"/>
<feBlend mode="normal" in2="BackgroundImageFix" result="effect1_dropShadow_339_3820"/>
<feBlend mode="normal" in="SourceGraphic" in2="effect1_dropShadow_339_3820" result="shape"/>
</filter>
<clipPath id="clip0_339_3820">
<rect x="20" y="16" width="64" height="64" rx="12" fill="white"/>
</clipPath>
</defs>
</svg>
