<svg width="24" height="24" viewBox="0 0 24 24" fill="none" xmlns="http://www.w3.org/2000/svg">
<path d="M5.40039 19.2C5.86156 18.6835 8.02144 16.3067 8.6544 16.3067H15.3468C16.264 16.3067 18.1364 18.2769 18.6004 18.9714M21.6004 12C21.6004 17.302 17.3023 21.6 12.0004 21.6C6.69846 21.6 2.40039 17.302 2.40039 12C2.40039 6.69809 6.69846 2.40002 12.0004 2.40002C17.3023 2.40002 21.6004 6.69809 21.6004 12ZM15.4392 9.72798C15.4392 7.89647 13.8931 6.40002 12.0007 6.40002C10.1083 6.40002 8.56213 7.89647 8.56213 9.72798C8.56213 11.5595 10.1083 13.0559 12.0007 13.0559C13.8931 13.0559 15.4392 11.5595 15.4392 9.72798Z" stroke="#8E9297" stroke-width="2"/>
</svg>
