<svg width="121" height="111" viewBox="0 0 121 111" fill="none" xmlns="http://www.w3.org/2000/svg">
<path d="M96.0437 110.487C97.9976 110.492 99.8811 109.774 101.317 108.479C107.305 103.059 112.096 96.4995 115.395 89.2029C118.693 81.9064 120.43 74.0273 120.497 66.0504C120.804 33.615 93.8295 6.92657 60.6448 6.85002C27.4412 6.77343 0.500039 33.0601 0.500039 65.4973C0.490558 73.5706 2.19126 81.5585 5.49507 88.9578C8.79887 96.3572 13.6342 103.008 19.6966 108.491C21.1292 109.78 23.0072 110.493 24.9547 110.487H96.0437Z" fill="url(#paint0_linear_436_13841)"/>
<path d="M72.1781 7.35937C71.1868 7.35088 70.2184 7.06905 69.3855 6.54669C68.5526 6.02432 67.8894 5.2829 67.4733 4.40868C66.8993 3.23851 65.9958 2.2503 64.8675 1.55853C63.7393 0.866762 62.4323 0.499745 61.0982 0.5H59.9022V0.599999C58.7802 0.787906 57.7214 1.23633 56.816 1.90714C55.9106 2.57795 55.1853 3.4513 54.7019 4.45291C54.2866 5.31977 53.6255 6.05361 52.7962 6.5684C51.9669 7.08318 51.0037 7.35757 50.0196 7.35937H45.205C44.8662 7.35937 44.5307 7.42421 44.2177 7.55018C43.9046 7.67616 43.6202 7.8608 43.3807 8.09357C43.1411 8.32634 42.951 8.60267 42.8214 8.9068C42.6917 9.21093 42.625 9.53689 42.625 9.86607V13.9173C42.625 14.5821 42.8968 15.2197 43.3807 15.6898C43.8645 16.1599 44.5207 16.424 45.205 16.424H76.9913C77.6756 16.424 78.3318 16.1599 78.8156 15.6898C79.2995 15.2197 79.5713 14.5821 79.5713 13.9173V9.86609C79.5713 9.20127 79.2995 8.56367 78.8156 8.09358C78.3318 7.62348 77.6756 7.35938 76.9913 7.35937H72.1781Z" fill="#388FF3"/>
<path opacity="0.15" d="M72.1781 7.35937C71.1868 7.35088 70.2184 7.06905 69.3855 6.54669C68.5526 6.02432 67.8894 5.2829 67.4733 4.40868C66.8993 3.23851 65.9958 2.2503 64.8675 1.55853C63.7393 0.866762 62.4323 0.499745 61.0982 0.5H59.9022V0.599999C58.7802 0.787906 57.7214 1.23633 56.816 1.90714C55.9106 2.57795 55.1853 3.4513 54.7019 4.45291C54.2866 5.31977 53.6255 6.05361 52.7962 6.5684C51.9669 7.08318 51.0037 7.35757 50.0196 7.35937H45.205C44.8662 7.35937 44.5307 7.42421 44.2177 7.55018C43.9046 7.67616 43.6202 7.8608 43.3807 8.09357C43.1411 8.32634 42.951 8.60267 42.8214 8.9068C42.6917 9.21093 42.625 9.53689 42.625 9.86607V13.9173C42.625 14.5821 42.8968 15.2197 43.3807 15.6898C43.8645 16.1599 44.5207 16.424 45.205 16.424H76.9913C77.6756 16.424 78.3318 16.1599 78.8156 15.6898C79.2995 15.2197 79.5713 14.5821 79.5713 13.9173V9.86609C79.5713 9.20127 79.2995 8.56367 78.8156 8.09358C78.3318 7.62348 77.6756 7.35938 76.9913 7.35937H72.1781Z" fill="#16191D"/>
<path fill-rule="evenodd" clip-rule="evenodd" d="M94.595 12.1321C96.5727 12.1321 98.176 13.6898 98.176 15.6114V107.021C98.176 108.943 96.5727 110.501 94.595 110.501H28.3139C26.3362 110.501 24.7329 108.943 24.7329 107.021V15.6114C24.7329 13.6898 26.3362 12.1321 28.3139 12.1321H94.595Z" fill="#F0F3F7"/>
<path fill-rule="evenodd" clip-rule="evenodd" d="M92.6868 12.1321C94.6645 12.1321 96.2678 13.6898 96.2678 15.6114V107.021C96.2678 108.943 94.6645 110.501 92.6868 110.501H26.4057C24.428 110.501 22.8247 108.943 22.8247 107.021V15.6114C22.8247 13.6898 24.428 12.1321 26.4057 12.1321H92.6868Z" fill="#D5D8DB"/>
<path fill-rule="evenodd" clip-rule="evenodd" d="M89.5448 16.0394C90.8329 16.0394 91.877 17.0539 91.877 18.3054V104.285C91.877 105.537 90.8329 106.551 89.5448 106.551H29.547C28.259 106.551 27.2148 105.537 27.2148 104.285V18.3054C27.2148 17.0539 28.259 16.0394 29.547 16.0394H89.5448Z" fill="white"/>
<path fill-rule="evenodd" clip-rule="evenodd" d="M39.064 43.8239C35.6143 43.8239 32.8179 41.1067 32.8179 37.7548C32.8179 34.4029 35.6143 31.6857 39.064 31.6857C42.5136 31.6857 45.3101 34.4029 45.3101 37.7548C45.3101 41.1067 42.5136 43.8239 39.064 43.8239Z" fill="#388FF3"/>
<path fill-rule="evenodd" clip-rule="evenodd" d="M39.064 61.187C35.6143 61.187 32.8179 58.4698 32.8179 55.1179C32.8179 51.7661 35.6143 49.0488 39.064 49.0488C42.5136 49.0488 45.3101 51.7661 45.3101 55.1179C45.3101 58.4698 42.5136 61.187 39.064 61.187Z" fill="#388FF3"/>
<path fill-rule="evenodd" clip-rule="evenodd" d="M39.064 78.5502C35.6143 78.5502 32.8179 75.833 32.8179 72.4811C32.8179 69.1292 35.6143 66.412 39.064 66.412C42.5136 66.412 45.3101 69.1292 45.3101 72.4811C45.3101 75.833 42.5136 78.5502 39.064 78.5502Z" fill="#388FF3"/>
<path d="M37.489 40.6776C37.3858 40.636 37.2921 40.5751 37.2132 40.4983L35.4811 38.8154C35.3222 38.6603 35.2331 38.4503 35.2334 38.2314C35.2337 38.0126 35.3232 37.8028 35.4825 37.6481C35.6417 37.4933 35.8577 37.4063 36.0829 37.406C36.3081 37.4058 36.5242 37.4924 36.6838 37.6468L37.8145 38.7453L41.0266 35.6243C41.1055 35.5473 41.1992 35.4862 41.3025 35.4444C41.4058 35.4027 41.5165 35.3811 41.6283 35.381C41.7402 35.3809 41.8509 35.4022 41.9543 35.4437C42.0576 35.4852 42.1515 35.5462 42.2306 35.623C42.3097 35.6999 42.3724 35.7911 42.4151 35.8915C42.4579 35.9919 42.4798 36.0996 42.4797 36.2082C42.4796 36.3169 42.4574 36.4245 42.4144 36.5248C42.3714 36.6252 42.3085 36.7163 42.2293 36.7929L38.4159 40.4983C38.337 40.5751 38.2433 40.6361 38.1401 40.6776C38.0369 40.7191 37.9262 40.7404 37.8145 40.7403C37.7028 40.7404 37.5922 40.7191 37.489 40.6776Z" fill="white"/>
<path fill-rule="evenodd" clip-rule="evenodd" d="M84.7824 35.8966C85.839 35.8966 86.6955 36.7288 86.6955 37.7554V37.7554C86.6955 38.7819 85.839 39.6141 84.7824 39.6141H51.5571C50.5006 39.6141 49.644 38.7819 49.644 37.7554V37.7554C49.644 36.7288 50.5006 35.8966 51.5571 35.8966H84.7824Z" fill="#D5D8DB"/>
<path d="M37.489 58.0401C37.3858 57.9985 37.2921 57.9376 37.2132 57.8608L35.4811 56.1779C35.3222 56.0228 35.2331 55.8128 35.2334 55.5939C35.2337 55.3751 35.3232 55.1653 35.4825 55.0106C35.6417 54.8558 35.8577 54.7688 36.0829 54.7685C36.3081 54.7683 36.5242 54.8549 36.6838 55.0093L37.8145 56.1078L41.0266 52.9868C41.1862 52.8324 41.4023 52.7458 41.6275 52.7461C41.8527 52.7463 42.0687 52.8334 42.2279 52.9881C42.3872 53.1429 42.4768 53.3527 42.477 53.5715C42.4773 53.7904 42.3882 54.0004 42.2293 54.1554L38.4159 57.8608C38.337 57.9376 38.2433 57.9986 38.1401 58.0401C38.0369 58.0816 37.9262 58.1029 37.8145 58.1028C37.7028 58.1029 37.5922 58.0816 37.489 58.0401Z" fill="white"/>
<path fill-rule="evenodd" clip-rule="evenodd" d="M84.7824 53.2579C85.839 53.2579 86.6955 54.0901 86.6955 55.1167V55.1167C86.6955 56.1433 85.839 56.9755 84.7824 56.9755H51.5571C50.5006 56.9755 49.644 56.1433 49.644 55.1167V55.1167C49.644 54.0901 50.5006 53.2579 51.5571 53.2579H84.7824Z" fill="#D5D8DB"/>
<path d="M37.489 75.4013C37.3858 75.3598 37.2921 75.2988 37.2132 75.222L35.4811 73.5391C35.3222 73.384 35.2331 73.174 35.2334 72.9552C35.2337 72.7363 35.3232 72.5265 35.4825 72.3718C35.6417 72.217 35.8577 72.13 36.0829 72.1297C36.3081 72.1295 36.5242 72.2161 36.6838 72.3705L37.8145 73.469L41.0266 70.348C41.1862 70.1936 41.4023 70.1071 41.6275 70.1073C41.8527 70.1075 42.0687 70.1946 42.2279 70.3493C42.3872 70.5041 42.4768 70.7139 42.477 70.9327C42.4773 71.1516 42.3882 71.3616 42.2293 71.5166L38.4159 75.222C38.337 75.2988 38.2433 75.3598 38.1401 75.4013C38.0369 75.4428 37.9262 75.4641 37.8145 75.464C37.7028 75.4641 37.5922 75.4428 37.489 75.4013Z" fill="white"/>
<path fill-rule="evenodd" clip-rule="evenodd" d="M84.7824 70.6211C85.839 70.6211 86.6955 71.4533 86.6955 72.4799C86.6955 73.5064 85.839 74.3386 84.7824 74.3386H51.5571C50.5006 74.3386 49.644 73.5064 49.644 72.4799C49.644 71.4533 50.5006 70.6211 51.5571 70.6211H84.7824Z" fill="#D5D8DB"/>
<path fill-rule="evenodd" clip-rule="evenodd" d="M39.064 95.9115C35.6143 95.9115 32.8179 93.1943 32.8179 89.8424C32.8179 86.4905 35.6143 83.7733 39.064 83.7733C42.5136 83.7733 45.3101 86.4905 45.3101 89.8424C45.3101 93.1943 42.5136 95.9115 39.064 95.9115Z" fill="#D5D8DB"/>
<path fill-rule="evenodd" clip-rule="evenodd" d="M84.7824 87.9843C85.839 87.9843 86.6955 88.8164 86.6955 89.843V89.843C86.6955 90.8696 85.839 91.7018 84.7824 91.7018H51.5571C50.5006 91.7018 49.644 90.8696 49.644 89.843V89.843C49.644 88.8164 50.5006 87.9843 51.5571 87.9843H84.7824Z" fill="#D5D8DB"/>
<path d="M70.9819 7.35938C69.9905 7.35089 69.0221 7.06906 68.1892 6.5467C67.3563 6.02433 66.6932 5.2829 66.277 4.40868C65.7028 3.23868 64.7993 2.25061 63.671 1.55886C62.5428 0.867122 61.236 0.5 59.9019 0.5C58.5678 0.5 57.261 0.867122 56.1327 1.55886C55.0045 2.25061 54.101 3.23868 53.5268 4.40868C53.1106 5.2829 52.4475 6.02433 51.6146 6.5467C50.7817 7.06906 49.8132 7.35089 48.8219 7.35938H44.0087C43.6699 7.35938 43.3344 7.42422 43.0214 7.55019C42.7084 7.67616 42.4239 7.8608 42.1844 8.09357C41.9448 8.32634 41.7548 8.60268 41.6251 8.90681C41.4954 9.21093 41.4287 9.53689 41.4287 9.86608V19.4189C41.4287 20.0837 41.7005 20.7213 42.1844 21.1914C42.6682 21.6615 43.3245 21.9256 44.0087 21.9256H75.795C76.1338 21.9256 76.4693 21.8608 76.7823 21.7348C77.0954 21.6088 77.3798 21.4242 77.6194 21.1914C77.8589 20.9586 78.049 20.6823 78.1786 20.3782C78.3083 20.074 78.375 19.7481 78.375 19.4189V9.8661C78.375 9.20127 78.1032 8.56368 77.6194 8.09358C77.1355 7.62348 76.4793 7.35938 75.795 7.35938H70.9819Z" fill="#388FF3"/>
<path opacity="0.2" fill-rule="evenodd" clip-rule="evenodd" d="M74.588 18.2222C75.1496 18.2222 75.6048 18.6645 75.6048 19.2101V19.2101C75.6048 19.7557 75.1496 20.198 74.588 20.198H46.0568C45.4953 20.198 45.04 19.7557 45.04 19.2101V19.2101C45.04 18.6645 45.4953 18.2222 46.0568 18.2222H74.588Z" fill="white"/>
<path fill-rule="evenodd" clip-rule="evenodd" d="M89.3681 108.583C81.8654 108.583 75.7832 102.673 75.7832 95.3833C75.7832 88.0932 81.8654 82.1833 89.3681 82.1833C96.8708 82.1833 102.953 88.0932 102.953 95.3833C102.953 102.673 96.8708 108.583 89.3681 108.583Z" fill="#21B264"/>
<path d="M86.8107 100.773C86.6272 100.699 86.4606 100.592 86.3204 100.456L81.8857 96.1798C81.6026 95.9064 81.4437 95.5357 81.4438 95.1493C81.444 94.7629 81.6033 94.3923 81.8866 94.1191C82.17 93.8459 82.5542 93.6923 82.9549 93.6921C83.3556 93.6919 83.74 93.8452 84.0235 94.1182L87.3893 97.3638L95.8443 89.2103C95.9847 89.0749 96.1513 88.9676 96.3348 88.8943C96.5182 88.821 96.7147 88.7833 96.9133 88.7833C97.1118 88.7833 97.3084 88.821 97.4918 88.8943C97.6752 88.9676 97.8418 89.0749 97.9822 89.2103C98.1226 89.3457 98.2339 89.5064 98.3099 89.6833C98.3859 89.8601 98.425 90.0497 98.425 90.2411C98.425 90.4326 98.3859 90.6222 98.3099 90.799C98.2339 90.9759 98.1226 91.1366 97.9822 91.272L88.4583 100.456C88.3181 100.592 88.1514 100.699 87.968 100.773C87.7845 100.846 87.5879 100.884 87.3893 100.883C87.1908 100.884 86.9941 100.846 86.8107 100.773Z" fill="white"/>
<defs>
<linearGradient id="paint0_linear_436_13841" x1="0.5" y1="6.84985" x2="0.5" y2="110.487" gradientUnits="userSpaceOnUse">
<stop stop-color="#FBFDFE"/>
<stop offset="1" stop-color="#F0F5FA"/>
</linearGradient>
</defs>
</svg>
